max v2;#N vpatcher 196 44 1160 818;#P origin 0 -17;#P window setfont "Sans Serif" 9.;#N in 1;#X comment noteinformation;#P newobj 762 26 25 196617 in 1;#N out~ 2;#X comment right ou;#P newobj 402 697 39 196617 out~ 2;#N out~ 1;#X comment left out;#P newobj 113 697 39 196617 out~ 1;#P newex 285 282 71 196617 +~;#P newex 402 670 34 196617 *~ 0.;#P newex 402 565 421 196617 *~ 0.;#P newex 800 267 72 196617 r ---maintune;#P flonum 800 332 35 9 0 0 0 3 0 0 0 221 221 221 222 222 222 0 0 0;#P newex 800 308 62 196617 / 8.175798;#P newex 800 287 70 196617 mtof;#P newex 765 350 45 196617 lum.* 1.;#P newex 767 59 31 196617 sel 0;#P number 819 93 35 9 0 0 256 3 0 0 0 221 221 221 222 222 222 0 0 0;#P flonum 800 181 35 9 0 0 0 3 0 0 0 221 221 221 222 222 222 0 0 0;#P newex 800 157 62 196617 / 8.175798;#P newex 800 136 70 196617 mtof;#P newex 800 115 29 196617 - 60;#P comment 831 117 75 196617 c3 referenzton;#P newex 610 21 59 196617 r ---length;#P newex 800 59 122 196617 unpack 0. 0.;#P newex 113 670 34 196617 *~ 0.;#P newex 563 21 45 196617 loadbang;#P newex 345 262 54 196617 sah~ 0.01;#P newex 113 307 182 196617 +~ 0.;#P message 563 70 21 196617 $1;#P button 563 45 15 0;#P newex 510 125 60 196617 r ---grsize;#P flonum 800 221 35 9 0 0 0 3 0 0 0 221 221 221 222 222 222 0 0 0;#P objectname flonum[7];#P newex 765 244 45 196617 lum.* 1.;#P newex 204 435 52 196617 sig~ 100.;#P newex 204 459 70 196617 sah~ 0.;#P newex 169 488 45 196617 *~ 100.;#P newex 113 608 421 196617 *~ 0.;#P newex 113 513 66 196617 +~ 0.;#P newex 524 349 125 196617 wave~ ---timestretchwin;#P comment 549 164 55 196617 Grain Size;#P flonum 510 204 35 9 0 0 0 3 0 0 0 221 221 221 222 222 222 0 0 0;#P objectname flonum[5];#P flonum 510 164 38 9 0 0 0 3 0 0 0 221 221 221 222 222 222 0 0 0;#P objectname flonum[4];#P newex 510 185 111 196617 expr 1./($f1 / 1000.);#P newex 510 221 63 196617 phasor~ 0.1;#P newex 113 540 134 196617 play~ ---lum.timestretch 2;#P newex 113 349 265 196617 sah~ 0.01;#P window linecount 2;#P comment 9 339 100 196617 gives the position within the sample ->;#P comment 585 66 100 196617 different phases for smoother playback;#P comment 820 34 100 196617 Pitch and Velocity Information;#P window linecount 1;#P comment 807 203 59 196617 Grain Pitch;#P window linecount 2;#P comment 464 45 99 196617 keep the different phasors n'sync;#P window linecount 1;#P comment 721 45 75 196617 filter note offs;#P comment 706 353 52 196617 main tune:;#N vpatcher 37 59 637 459;#P window setfont "Sans Serif" 9.;#P newex 93 50 100 196617 r ---randomposition;#P newex 50 99 53 196617 *~ 0.;#P newex 50 73 30 196617 abs~;#P newex 50 50 38 196617 noise~;#P outlet 50 121 15 0;#P connect 1 0 2 0;#P connect 2 0 3 0;#P connect 3 0 0 0;#P connect 4 0 3 1;#P pop;#P newobj 345 226 86 196617 p randomposition;#P newex 285 228 41 196617 sig~ 0.;#P newex 285 196 90 196617 r ---startposition;#N vpatcher 37 59 935 744;#P window setfont "Sans Serif" 9.;#P window linecount 0;#P newex 133 271 29 196617 sig~;#N vpatcher 688 514 1288 914;#P window setfont "Sans Serif" 9.;#P newex 123 201 71 196617 selector~ 2 1;#P newex 183 160 40 196617 *~ -1.;#P newex 50 65 91 196617 r ---playdirection;#P comment 73 50 45 196617 reverse;#P toggle 50 91 15 0;#P objectname toggle;#P newex 50 121 27 196617 + 1;#P newex 195 83 78 196617 r ---looplength;#P newex 153 106 52 196617 *~ 3000.;#P inlet 153 86 15 0;#P outlet 123 242 15 0;#P connect 7 0 5 0;#P connect 5 0 4 0;#P connect 4 0 9 0;#P connect 9 0 0 0;#P connect 1 0 2 0;#P connect 2 0 9 1;#P connect 2 0 8 0;#P connect 8 0 9 2;#P connect 3 0 2 1;#P pop;#P newobj 133 349 58 196617 p direction;#P message 169 249 14 196617 0;#P newex 133 298 46 196617 phasor~;#P newex 133 225 146 196617 lum.* 1.;#P window linecount 1;#P newex 133 162 75 196617 r ---playspeed;#P flonum 133 190 35 9 0 0 0 3 0 0 0 221 221 221 222 222 222 0 0 0;#P objectname flonum[2];#P button 169 85 15 0;#P newex 269 114 78 196617 r ---looplength;#P flonum 269 201 49 9 0 0 0 3 0 0 0 221 221 221 222 222 222 0 0 0;#P objectname flonum[9];#P newex 269 181 111 196617 expr 1./($f1 / 1000.);#P window linecount 2;#P comment 389 180 115 196617 Playback speed of the sample;#P window linecount 1;#P comment 299 228 99 196617 bang restarts phase;#P inlet 169 62 15 0;#P outlet 133 551 15 0;#P comment 187 87 59 196617 <-playback;#P connect 10 0 9 0;#P connect 9 0 11 0;#P connect 11 0 15 0;#P connect 15 0 12 0;#P connect 12 0 14 0;#P connect 14 0 1 0;#P connect 2 0 8 0;#P connect 8 0 13 0;#P connect 13 0 12 1;#P connect 7 0 5 0;#P connect 5 0 6 0;#P connect 6 0 11 1;#P pop;#P newobj 113 230 65 196617 p playengine;#N vpatcher 177 175 719 457;#P window setfont "Sans Serif" 9.;#P newex 380 80 27 196617 + 1;#P newex 59 201 71 196617 selector~ 2 1;#P newex 317 112 41 196617 sig~ 1.;#P window linecount 1;#P newex 376 43 80 196617 r ---adsrtoggle;#P window linecount 0;#P message 168 73 14 196617 0;#P window linecount 1;#P newex 187 40 63 196617 r ---fileend;#P window linecount 0;#P newex 219 73 60 196617 loadmess 1;#P toggle 219 96 15 0;#P message 219 114 58 196617 legato \$1;#P newex 50 69 60 196617 unpack 1. 0;#P newex 50 50 121 196617 linedrive 127 1. 1.03 10;#P newex 75 109 85 196617 unpack 2. 0. 1. 2.;#P newex 75 89 72 196617 r ---timeadsr;#P newex 50 141 112 196617 adsr~ 2. 0. 1. 2.;#P inlet 50 30 15 0;#P outlet 50 224 15 0;#P comment 380 123 62 196617 adsr on/off;#P connect 2 0 6 0;#P connect 6 0 7 0;#P connect 8 0 3 0;#P connect 7 0 3 0;#P connect 12 0 3 0;#P connect 15 0 1 0;#P connect 16 0 15 0;#P connect 4 0 5 0;#P connect 5 0 3 1;#P connect 14 0 15 1;#P connect 5 1 3 2;#P connect 3 0 15 2;#P connect 5 2 3 3;#P connect 5 3 3 4;#P connect 11 0 12 0;#P connect 10 0 9 0;#P connect 9 0 8 0;#P connect 13 0 16 0;#P pop;#P newobj 567 630 189 196617 p adsr;#P fasten 42 1 1 0 793 88 118 88;#P connect 1 0 30 0;#P connect 30 0 12 0;#P connect 12 0 20 0;#P connect 20 0 13 0;#P connect 13 0 21 0;#P connect 21 0 33 0;#P connect 33 0 51 0;#P connect 0 0 33 1;#P fasten 14 0 22 0 515 430 174 430;#P connect 22 0 20 1;#P fasten 43 0 24 0 770 407 209 407;#P connect 24 0 23 0;#P connect 23 0 22 1;#P fasten 19 0 23 1 529 430 269 430;#P connect 2 0 3 0;#P connect 3 0 50 0;#P fasten 50 0 30 1 290 303 290 303;#P connect 4 0 31 0;#P connect 31 0 50 1;#P fasten 14 0 12 1 515 293 373 293;#P fasten 14 0 31 1 515 257 394 257;#P fasten 13 1 48 0 242 561 407 561;#P connect 48 0 49 0;#P connect 49 0 52 0;#P fasten 0 0 49 1 572 660 431 660;#P connect 27 0 16 0;#P connect 16 0 15 0;#P connect 15 0 17 0;#P connect 17 0 14 0;#P fasten 14 0 19 0 515 281 529 281;#P connect 19 0 21 1;#P fasten 35 0 28 0 615 41 568 41;#P fasten 32 0 28 0 568 41 568 41;#P fasten 42 1 28 0 793 88 716 88 716 41 568 41;#P connect 28 0 29 0;#P connect 29 0 14 1;#P fasten 34 1 0 0 917 622 572 622;#P fasten 16 0 25 0 515 182 770 182;#P connect 25 0 43 0;#P hidden connect 34 1 42 0;#P connect 53 0 34 0;#P connect 34 0 37 0;#P connect 37 0 38 0;#P connect 38 0 39 0;#P connect 39 0 40 0;#P connect 40 0 26 0;#P connect 26 0 25 1;#P connect 47 0 44 0;#P connect 44 0 45 0;#P connect 45 0 46 0;#P connect 46 0 43 1;#P fasten 19 0 48 1 529 442 818 442;#P connect 41 0 37 1;#P pop;