max v2;#N vpatcher 195 44 642 337;#P origin 1 -606;#P window setfont "Sans Serif" 9.;#P window linecount 1;#N pp 32 loopend 0. 1.;#P hidden newobj 569 517 95 196617 pp 32 loopend 0. 1.;#N pp 31 loopstart 0. 1.;#P hidden newobj 566 452 103 196617 pp 31 loopstart 0. 1.;#N pp 30 dronetoggle 0 1;#P hidden newobj 580 357 108 196617 pp 30 dronetoggle 0 1;#N vpatcher 37 59 637 459;#P button 161 191 15 0;#P window setfont "Sans Serif" 9.;#P window linecount 0;#P newex 180 315 68 196617 clip 0. 5000.;#P window linecount 1;#P newex 257 134 50 196617 deferlow;#P newex 150 129 50 196617 deferlow;#P newex 248 226 99 196617 zmap 0. 1. 0. 1000.;#P flonum 180 275 80 9 0 0 0 3 0 0 0 221 221 221 222 222 222 0 0 0;#N vpatcher 37 59 637 459;#P window setfont "Sans Serif" 9.;#P newex 50 50 29 196617 t b f;#P newex 52 87 27 196617 + 0.;#P inlet 50 30 15 0;#P inlet 94 54 15 0;#P outlet 52 109 15 0;#P connect 2 0 4 0;#P connect 1 0 3 0;#P connect 4 0 3 0;#P connect 3 0 0 0;#P connect 4 1 3 1;#P pop;#P newobj 180 247 27 196617 p sa;#N vpatcher 37 59 637 459;#P window setfont "Sans Serif" 9.;#P newex 50 50 29 196617 t b f;#P newex 52 87 29 196617 * 1.;#P inlet 50 30 15 0;#P inlet 94 54 15 0;#P outlet 52 109 15 0;#P connect 2 0 4 0;#P connect 1 0 3 0;#P connect 4 0 3 0;#P connect 3 0 0 0;#P connect 4 1 3 1;#P pop;#P newobj 131 162 31 196617 p sm;#P flonum 84 275 80 9 0 0 0 3 0 0 0 221 221 221 222 222 222 0 0 0;#P flonum 64 79 55 9 0 0 0 3 0 0 0 221 221 221 222 222 222 0 0 0;#P newex 50 50 60 196617 r ---length;#P inlet 257 100 15 0;#P inlet 150 109 15 0;#P outlet 84 295 15 0;#P outlet 181 340 15 0;#P connect 4 0 5 0;#P connect 7 0 6 0;#P connect 6 0 1 0;#P connect 5 0 7 0;#P connect 2 0 11 0;#P connect 11 0 7 1;#P connect 7 0 14 0;#P connect 7 0 8 0;#P connect 8 0 9 0;#P connect 9 0 13 0;#P connect 13 0 0 0;#P connect 10 0 8 1;#P fasten 5 0 13 2 29 280;#P connect 12 0 10 0;#P connect 3 0 12 0;#P connect 5 0 10 4;#P pop;#P hidden newobj 250 -8 41 196617 p loops;#P user multiSlider 3 191 441 12 0. 1. 1 2680 47 0 0 2 0 0 1;#M frgb 0 0 0;#M brgb 255 255 255;#M rgb2 127 127 127;#M rgb3 0 0 0;#M rgb4 37 52 91;#M rgb5 74 105 182;#M rgb6 112 158 18;#M rgb7 149 211 110;#M rgb8 187 9 201;#M rgb9 224 62 37;#M rgb10 7 114 128;#P hidden button 82 391 15 0;#P user multiSlider 3 176 441 12 0. 1. 1 2680 47 0 0 2 0 0 1;#M frgb 0 0 0;#M brgb 255 255 255;#M rgb2 127 127 127;#M rgb3 0 0 0;#M rgb4 37 52 91;#M rgb5 74 105 182;#M rgb6 112 158 18;#M rgb7 149 211 110;#M rgb8 187 9 201;#M rgb9 224 62 37;#M rgb10 7 114 128;#P toggle 281 217 15 0;#P hidden newex 298 324 80 196617 s ---adsrtoggle;#P hidden user ezdac~ 579 232 623 265 0;#N pp 15 monotoggle 0 1;#P hidden newobj 574 191 106 196617 pp 15 monotoggle 0 1;#P hidden newex 561 166 86 196617 pvar monostereo;#P comment 152 231 14 196617 O;#P user hslider 291 251 18 128 158 1 0 0;#P objectname main_out;#P number 230 267 31 9 0 3000 35 3 0 0 0 255 255 255 222 222 222 0 0 0;#P objectname r;#P number 230 233 31 9 0 3000 35 3 0 0 0 255 255 255 222 222 222 0 0 0;#P objectname d;#P number 230 216 31 9 0 3000 35 3 0 0 0 255 255 255 222 222 222 0 0 0;#P objectname a;#P hidden message 540 39 31 196617 60 0;#P hidden message 487 39 43 196617 60 100;#P hidden newex 486 221 65 196617 dac~;#P hidden message 719 504 62 196617 windowsize;#P hidden newex 487 199 65 196617 plugout~;#N pp 12 main_out 0 158;#P hidden newobj 556 139 109 196617 pp 12 main_out 0 158;#N pp 9 s 0. 1.;#P hidden newobj 993 271 61 196617 pp 9 s 0. 1.;#N pp 10 r 0 3000;#P hidden newobj 1058 271 79 196617 pp 10 r 0 3000;#N pp 8 d 0 3000;#P hidden newobj 913 272 73 196617 pp 8 d 0 3000;#N pp 7 a 0 3000;#P hidden newobj 836 272 73 196617 pp 7 a 0 3000;#N pp 6 windowtype 0 5 choices Sine QuasiGauss Tri 3stagelin Expodec Rexpodec;#P hidden newobj 763 230 360 196617 pp 6 windowtype 0 5 choices Sine QuasiGauss Tri 3stagelin Expodec Rexpodec;#N pp 5 reverse 0 1;#P hidden newobj 930 186 86 196617 pp 5 reverse 0 1;#N pp 4 size 1. 1000.;#P hidden newobj 931 144 92 196617 pp 4 size 1. 1000.;#N pp 3 smear 0. 1.;#P hidden newobj 931 102 84 196617 pp 3 smear 0. 1.;#N pp 2 Stretch 0. 4.;#P hidden newobj 931 59 90 196617 pp 2 Stretch 0. 4.;#N pp 33 Tune -24. 24.;#P hidden newobj 92 537 100 196617 pp 33 Tune -24. 24.;#P hidden message 854 503 49 196617 recall \$1;#P hidden number 854 484 35 9 0 0 0 3 0 0 0 221 221 221 222 222 222 0 0 0;#P hidden message 826 455 35 196617 set \$1;#P hidden number 826 431 35 9 0 0 0 3 0 0 0 221 221 221 222 222 222 0 0 0;#P hidden number 785 483 35 9 0 0 0 3 0 0 0 221 221 221 222 222 222 0 0 0;#P hidden message 785 503 55 196617 capture \$1;#P hidden button 785 444 27 0;#P hidden comment 859 416 51 196617 Programs;#P hidden comment 777 428 35 196617 Store!;#P hidden comment 866 435 115 196617 Store Program Number:;#P window linecount 2;#P hidden comment 892 481 114 196617 Recall Program Number:;#P window linecount 1;#N plugconfig;#C useviews 0 1 0 0;#C numprograms 1;#C preempt 1;#C sigvschange 1;#C sigvsdefault 32;#C windowsize;#C defaultview Dehnübung 0 0 0;#C dragscroll 1;#C noinfo;#C package ????;#C setprogram 1 "default" 0 0. 0.07 0. 0.059059 1. 0. 0.005333 0. 1. 0.076 0. 0.816456 0. 0. 0. 0. 0. 0. 0. 0. 0. 0. 0. 0. 0. 0. 0. 0. 0. 1. 0.061503 0.539863 0.5 0. 0. 0. 0. 0. 0. 0.59668 0.686523 0.598633 0.686523 0.600586 0.59082 0.69043 0.706055 0.700195 0.700195 0.5 0.5 0.5 0.5 0.5 0.5 0.5 0.5 0.5 0.5 0.5 0.5 0.5 0.5 0.5 0.5 0.5 0.5 0.5 0.5 0.5 0.5;#C uniqueid 20 146 219;#C initialpgm 1;#C synth;#P hidden newobj 187 44 55 196617 plugconfig;#P comment 380 273 59 196617 ©2005 sbl;#P hidden newex 554 95 88 196617 pvar main_out;#P comment 263 267 14 196617 R;#P comment 263 250 14 196617 S;#P comment 263 233 14 196617 D;#P comment 49 218 82 196617 Tune (1/2 tone);#P message 150 265 62 196617 load sample;#P objectname fileload;#P hidden newex 71 419 27 196617 !-;#P hidden newex 71 468 100 196617 s ---looplength;#P user umenu 137 245 80 196647 1 64 261 1;#X setrgb 0 0 0 255 255 255 255 255 255 221 221 221 170 170 170 119 119 119 187 187 187;#X add Sine;#X add QuasiGauss;#X add Tri;#X add 3stagelin;#X add Expodec;#X add Rexpodec;#P objectname window_type;#P user waveform~ 2 34 441 140 3 9;#W mode none;#W mouseoutput continuous;#W unit ms;#W grid 0.;#W ticks 0;#W labels 0;#W vlabels 0;#W vticks 0;#W bpm 120. 4.;#W frgb 0 0 0;#W brgb 206 206 206;#W rgb2 0 0 0;#W rgb3 0 0 0;#W rgb4 0 0 0;#W rgb5 190 137 255;#W rgb6 0 0 0;#W rgb7 83 83 83;#P flonum 8 216 41 9 -24. 24. 35 3 0 0 0 255 255 255 222 222 222 0 0 0;#P objectname maintune;#P flonum 230 250 31 9 0. 1. 35 3 0 0 0 255 255 255 222 222 222 0 0 0;#P objectname s;#P hidden newex 174 468 118 196617 s ---startposition;#P comment 49 252 38 196617 smear;#P flonum 8 250 41 9 0. 1. 35 3 0 0 0 255 255 255 222 222 222 0 0 0;#P objectname randomness;#P flonum 8 267 41 9 1. 1000. 35 3 0 0 0 255 255 255 222 222 222 0 0 0;#P objectname grsize;#P comment 198 231 21 196617 < >;#P toggle 200 216 15 0;#P objectname direction;#P flonum 8 233 41 9 0. 4. 35 3 0 0 0 255 255 255 222 222 222 0 0 0;#P objectname playback;#P comment 48 235 52 196617 Stretch;#P comment 49 268 44 196617 size ms;#N vpatcher 439 623 802 807;#P window setfont "Sans Serif" 9.;#P newex 50 91 127 196617 switch 2 1;#P newex 166 67 27 196617 f;#P newex 108 67 27 196617 f;#N vpatcher 650 438 1250 838;#P window setfont "Sans Serif" 9.;#P newex 50 97 27 196617 t b i;#P newex 50 75 27 196617 + 1;#P newex 50 50 92 196617 r ---playdirection;#P outlet 68 124 15 0;#P outlet 50 123 15 0;#P connect 2 0 3 0;#P connect 3 0 4 0;#P connect 4 1 0 0;#P connect 4 0 1 0;#P pop;#P newobj 50 23 68 196617 p qui?;#P inlet 166 47 15 0;#P inlet 108 47 15 0;#P outlet 50 132 15 0;#P connect 3 0 6 0;#P connect 6 0 0 0;#P connect 3 1 4 0;#P connect 1 0 4 0;#P connect 4 0 6 1;#P connect 3 1 5 0;#P connect 2 0 5 0;#P connect 5 0 6 2;#P pop;#P hidden newobj 174 420 96 196617 p startposition;#N vpatcher 387 456 987 856;#P inlet 187 78 15 0;#P window setfont "Sans Serif" 9.;#P newex 64 34 55 196617 plugmidiin;#P window linecount 1;#P newex 64 58 92 196617 midiparse;#N comlet right out;#P outlet 272 299 15 0;#N comlet left out;#P outlet 98 299 15 0;#P window linecount 0;#P newex 272 264 59 196617 +~;#P newex 98 264 53 196617 +~;#P newex 98 155 86 196617 prepend midinote;#P newex 141 229 155 196617 poly~ dehnenginepoly 1 args 0.5;#P newex 98 203 152 196617 poly~ dehnenginepoly 1 args 0.;#P newex 98 130 45 196617 pack 0 0;#P newex 64 108 47 196617 poly 1 1;#P connect 10 0 9 0;#P connect 9 0 0 0;#P connect 0 1 1 0;#P connect 1 0 4 0;#P connect 11 0 4 0;#P fasten 4 0 2 0 103 181 103 181;#P connect 2 0 5 0;#P connect 5 0 7 0;#P connect 0 2 1 1;#P fasten 4 0 3 0 103 176 146 176;#P connect 3 0 5 1;#P connect 2 1 6 0;#P connect 6 0 8 0;#P connect 3 1 6 1;#P pop;#P hidden newobj 487 114 46 196617 p crux;#N vpatcher 36 58 549 701;#P window setfont "Sans Serif" 9.;#P newex 306 92 44 196617 sel 0 1;#P window linecount 1;#P message 352 193 96 196617 1 1 0 \, 0 0 1 \, 0 1 1;#P toggle 306 51 15 0;#P message 253 196 96 196617 0 1 0 \, 0 0 1 \, 1 1 1;#P user matrixctrl 299 243 130 66 MatrixDefaultCell.pct MatrixDefaultBkgnd.pct 130 66 16 16 8 4 16 16 1 1 48 2 5120 0;#N comlet mono;#P inlet 305 29 15 0;#P window linecount 0;#P newex 195 378 92 196617 loadmess ramp 10;#P newex 107 377 87 196617 matrix~ 2 2 1.;#P inlet 145 87 15 0;#P objectname volume;#P user gain~ 91 127 24 100 158 0 1.071519 7.94321 10.;#P user gain~ 50 122 24 100 158 0 1.071519 7.94321 10.;#P inlet 88 86 15 0;#P inlet 50 86 15 0;#P outlet 145 445 15 0;#P outlet 107 445 15 0;#P connect 6 0 4 0;#P connect 2 0 4 0;#P connect 4 1 5 0;#P connect 3 0 5 0;#P connect 8 0 7 0;#P connect 4 0 7 0;#P fasten 10 0 7 0 305 310;#P connect 7 0 0 0;#P connect 7 1 1 0;#P connect 5 0 7 1;#P connect 14 0 11 0;#P connect 13 0 10 0;#P connect 11 0 10 0;#P connect 9 0 12 0;#P connect 12 0 14 0;#P connect 14 1 13 0;#P pop;#P hidden newobj 487 139 65 196617 p mainout;#N vpatcher 37 59 637 459;#P window setfont "Sans Serif" 9.;#P newex 50 50 69 196617 r ---newload;#P newex 50 71 48 196617 loadbang;#P message 50 92 114 196617 set ---lum.timestretch;#P outlet 50 112 15 0;#P connect 3 0 2 0;#P connect 2 0 1 0;#P connect 1 0 0 0;#P pop;#P hidden newobj 2 -9 70 196617 p beginner;#P hidden newex 835 321 73 196617 pak 2. 0. 1. 2.;#P hidden newex 835 346 73 196617 s ---timeadsr;#P hidden newex 1035 294 39 196617 pvar r;#P hidden newex 974 294 39 196617 pvar s;#P hidden newex 913 294 39 196617 pvar d;#P hidden newex 835 296 39 196617 pvar a;#P hidden newex 837 229 94 196617 pvar window_type;#P hidden newex 838 187 74 196617 pvar direction;#P hidden newex 838 209 92 196617 s ---playdirection;#P hidden newex 838 102 87 196617 pvar randomness;#P hidden newex 838 146 62 196617 pvar grsize;#P hidden newex 838 58 73 196617 pvar playback;#P hidden newex 83 566 73 196617 s ---maintune;#P hidden newex 838 167 61 196617 s ---grsize;#P hidden newex 838 81 77 196617 s ---playspeed;#P comment 262 216 14 196617 A;#N vpatcher 37 59 615 495;#P origin 0 21;#P window setfont "Sans Serif" 9.;#P window linecount 1;#N vpatcher 320 123 916 561;#P window setfont "Sans Serif" 9.;#P window linecount 1;#P newex 0 239 41 196617 print 3;#P newex 0 195 41 196617 print 2;#P newex 14 128 41 196617 print 1;#P newex 39 247 354 196617 buddy;#P comment 128 215 123 196617 convert floats to chars;#P message 383 149 93 196617 set \$1;#P newex 39 289 354 196617 ddg.fileset2path;#P newex 39 212 79 196617 ddg.mp2sym 32;#P newex 39 184 188 196617 plugmultiparam 40 32 -256. 256. fixed;#P newex 39 148 79 196617 ddg.sym2mp 32;#N pp 1 hidden fixed param -1 8000;#P newobj 383 184 161 196617 pp 1 hidden fixed param -1 8000;#P newex 39 97 354 196617 ddg.path2fileset;#P comment 57 70 100 196617 incoming filename;#P comment 55 327 134 196617 outgoing filename and path;#P inlet 39 45 15 0;#P outlet 39 364 15 0;#P comment 398 98 132 196617 filepath and name parsing;#P comment 131 150 123 196617 convert chars to floats;#P comment 229 186 136 196617 store filename as param data;#P window linecount 0;#P comment 397 292 118 196617 join it all back up again;#P connect 10 0 18 0;#P connect 12 0 19 0;#P connect 8 0 17 0;#P connect 5 0 8 0;#P connect 8 0 10 0;#P connect 10 0 11 0;#P connect 11 0 12 0;#P connect 12 0 16 0;#P connect 16 0 13 0;#P connect 13 0 4 0;#P connect 8 1 14 0;#P connect 14 0 9 0;#P connect 9 0 16 1;#P connect 16 1 13 1;#P pop;#P newobj 17 117 66 196617 p filehandler;#P window linecount 0;#P newex 17 44 20 196617 t b;#P message 17 70 33 196617 sound;#P newex 38 137 79 196617 prepend replace;#P newex 17 94 54 196617 opendialog;#P inlet 17 24 15 0;#P window linecount 1;#P newex 165 200 69 196617 s ---newload;#P newex 338 226 59 196617 s ---length;#P flonum 338 207 88 9 0 0 0 3 0 0 0 221 221 221 222 222 222 0 0 0;#P newex 242 185 122 196617 info~ ---lum.timestretch;#P newex 17 163 158 196617 buffer~ ---lum.timestretch 10 2;#P window linecount 0;#P comment 231 219 100 196617 get information about length of sample;#P connect 6 0 10 0;#P connect 10 0 9 0;#P connect 9 0 7 0;#P connect 7 0 11 0;#P connect 8 0 1 0;#P connect 7 0 8 0;#P connect 11 0 8 0;#P connect 1 1 5 0;#P fasten 1 1 2 0 170 182 247 182;#P connect 2 6 3 0;#P connect 3 0 4 0;#P pop;#P hidden newobj 150 306 80 196617 p keepmybuffer;#N vpatcher 378 581 978 981;#P window setfont "Sans Serif" 9.;#P newex 100 50 78 196617 r ---looplength;#P newex 50 72 60 196617 lum.* 1.;#P newex 50 111 101 196617 s ---randomposition;#P inlet 50 52 15 0;#P connect 0 0 2 0;#P connect 2 0 1 0;#P connect 3 0 2 1;#P pop;#P hidden newobj 838 125 52 196617 p thesend;#N vpatcher 37 59 637 459;#P window setfont "Sans Serif" 9.;#P window linecount 1;#P newex 51 93 161 196617 buffer~ ---timestretchwin 11.61;#P user umenu 50 50 129 196647 1 64 66 1;#X add lum.win.sine.aif;#X add lum.win.quasigauss.aif;#X add lum.win.tri.aif;#X add lum.win.3stagelinear.aif;#X add lum.win.expodec.aif;#X add lum.win.rexpodec.aif;#P objectname window_type[1];#P inlet 50 30 15 0;#P window linecount 0;#P newex 51 71 81 196617 prepend replace;#P connect 1 0 2 0;#P connect 2 1 0 0;#P connect 0 0 3 0;#P pop;#P hidden newobj 837 250 52 196617 p window;#P comment 336 236 55 196617 MAIN OUT;#P user panel 225 211 216 76;#X brgb 149 149 149;#X frgb 0 0 0;#X border 1;#X rounded 0;#X shadow 0;#X done;#P user hint 199 214 217 232 reverse 1000 100 0 65535 65535 52428 9 3 0 1 0 0 0;#P toggle 150 216 15 0;#P objectname monostereo;#P user panel 5 211 218 76;#X brgb 116 116 116;#X frgb 0 0 0;#X border 1;#X rounded 0;#X shadow 0;#X done;#P user panel 2 206 442 85;#X brgb 255 255 255;#X frgb 0 0 0;#X border 1;#X rounded 1;#X shadow 0;#X done;#P user hint 149 214 167 232 click_for_mono_file 1000 100 0 65535 65535 52428 9 3 0 1 0 0 0;#P hidden connect 26 0 41 0;#P hidden connect 95 0 90 0;#P hidden connect 96 0 92 0;#P hidden connect 64 0 40 0;#P hidden connect 41 2 44 0;#P hidden connect 91 0 44 0;#P hidden connect 44 0 43 0;#P hidden connect 41 3 91 0;#P hidden connect 40 0 13 0;#P hidden connect 41 3 44 1;#P hidden connect 40 0 64 0;#P hidden connect 45 0 9 0;#P hidden connect 41 2 29 0;#P hidden connect 29 0 38 0;#P hidden connect 76 0 52 0;#P hidden connect 58 0 52 0;#P hidden connect 63 0 52 0;#P hidden connect 93 0 41 2;#P hidden connect 90 0 93 0;#P hidden connect 41 3 29 1;#P hidden connect 92 0 93 1;#P hidden connect 94 0 89 0;#P hidden connect 89 0 88 0;#P hidden connect 93 1 41 3;#P hidden connect 75 0 77 0;#P hidden connect 78 0 28 0;#P hidden connect 79 0 28 0;#P hidden connect 28 0 27 0;#P hidden connect 27 0 75 0;#P hidden connect 28 1 27 1;#P hidden connect 50 0 27 2;#P hidden connect 85 0 27 3;#P hidden connect 75 1 77 1;#P hidden connect 27 1 75 1;#P hidden connect 74 0 50 0;#P hidden connect 50 0 74 0;#P hidden connect 86 0 85 0;#P hidden connect 90 0 95 0;#P hidden connect 92 0 96 0;#P hidden connect 85 0 86 0;#P hidden connect 89 0 94 0;#P hidden connect 19 0 69 0;#P hidden connect 57 0 59 0;#P hidden connect 61 0 59 0;#P hidden connect 59 0 58 0;#P hidden connect 60 0 61 0;#P hidden connect 70 0 20 0;#P hidden connect 20 0 25 0;#P hidden connect 25 0 24 0;#P hidden connect 20 0 70 0;#P hidden connect 69 0 19 0;#P hidden connect 19 0 7 0;#P hidden connect 65 0 14 0;#P hidden connect 14 0 11 0;#P hidden connect 66 0 16 0;#P hidden connect 16 0 8 0;#P hidden connect 67 0 15 0;#P hidden connect 15 0 12 0;#P hidden connect 68 0 18 0;#P hidden connect 18 0 17 0;#P hidden connect 62 0 63 0;#P hidden connect 21 0 25 1;#P hidden connect 22 0 25 2;#P hidden connect 23 0 25 3;#P hidden connect 21 0 71 0;#P hidden connect 71 0 21 0;#P hidden connect 18 0 68 0;#P hidden connect 14 0 65 0;#P hidden connect 16 0 66 0;#P hidden connect 15 0 67 0;#P hidden connect 73 0 22 0;#P hidden connect 22 0 73 0;#P hidden connect 72 0 23 0;#P hidden connect 23 0 72 0;#P pop;