max v2;#N vpatcher 153 275 494 629;#P window setfont "Sans Serif" 9.;#N vpatcher 42 167 323 391;#P window setfont "Sans Serif" 9.;#P newex 120 47 27 196617 t b f;#P newex 45 47 27 196617 t b f;#P newex 164 120 27 196617 f;#P newex 26 118 27 196617 f;#P outlet 164 179 15 0;#P outlet 26 179 15 0;#P message 62 89 70 196617 set \$1 22050;#P inlet 26 25 15 0;#P message 137 89 45 196617 set 0 \$1;#P inlet 164 20 15 0;#P newex 26 149 60 196617 clip 0. 100.;#P newex 164 149 90 196617 clip 5000. 22050.;#P connect 4 0 8 0;#P fasten 11 0 8 0 125 77 31 77;#P fasten 3 0 1 0 142 142 31 142;#P connect 8 0 1 0;#P connect 1 0 6 0;#P connect 4 0 10 0;#P connect 10 1 5 0;#P connect 2 0 11 0;#P connect 11 1 3 0;#P connect 2 0 9 0;#P fasten 10 0 9 0 50 77 169 77;#P fasten 5 0 0 0 67 142 169 142;#P connect 9 0 0 0;#P connect 0 0 7 0;#P pop;#P newobj 159 142 43 196617 p limit;#P newex 149 266 49 196617 * 0.;#P newex 110 266 27 196617 * 0.;#P newex 71 266 27 196617 * 0.;#P newex 20 70 61 196617 route signal;#N comlet Biquad Coefficient b1 (float);#P outlet 227 291 15 0;#N comlet Biquad Coefficient b2 (float);#P outlet 266 291 15 0;#N comlet Biquad Coefficient a0 (float);#P outlet 71 291 15 0;#N comlet Biquad Coefficient a1 (float);#P outlet 110 291 15 0;#N comlet Biquad Coefficient a2 (float);#P outlet 149 291 15 0;#N vpatcher 511 316 953 483;#P outlet 18 118 15 0;#P window setfont "Sans Serif" 9.;#P newex 18 80 27 196617 * 0.;#P newex 18 54 27 196617 * 0.;#P outlet 184 118 15 0;#P outlet 215 118 15 0;#P newex 215 87 27 196617 * 0.;#P newex 184 87 27 196617 + 0.;#P newex 184 54 27 196617 t f f;#P newex 272 62 142 196617 expr pow( 10. \\\, $f1 * 0.05);#P inlet 184 27 15 0;#P inlet 272 27 15 0;#P inlet 232 27 15 0;#P inlet 66 27 15 0;#P inlet 18 27 15 0;#P newex 86 54 40 196617 t b f f;#P inlet 86 27 15 0;#P inlet 134 27 15 0;#P newex 86 87 27 196617 1.;#P newex 117 87 27 196617 + 0.;#P newex 148 87 27 196617 * 0.;#P outlet 86 118 15 0;#P outlet 148 118 15 0;#P outlet 117 118 15 0;#P connect 9 0 20 0;#P connect 20 0 21 0;#P connect 21 0 22 0;#P connect 10 0 20 1;#P connect 14 0 21 1;#P connect 7 0 8 0;#P connect 8 0 5 0;#P connect 5 0 2 0;#P connect 8 1 4 0;#P connect 4 0 0 0;#P connect 6 0 4 1;#P connect 8 2 3 0;#P connect 3 0 1 0;#P connect 6 0 3 1;#P connect 13 0 15 0;#P connect 15 0 16 0;#P connect 16 0 19 0;#P connect 11 0 16 1;#P connect 15 1 17 0;#P connect 17 0 18 0;#P connect 11 0 17 1;#P connect 12 0 14 0;#P pop;#P newobj 71 227 208 196617 patcher product;#P newex 242 49 27 196617 t b f;#P newex 228 23 52 196617 dspstate~;#N comlet High Transition Freq (int \, float) Hz;#P inlet 215 49 15 0;#N comlet Low Transition Freq (int \, float) Hz;#P inlet 183 49 15 0;#N vpatcher 490 288 750 655;#P inlet 188 21 15 0;#P window setfont "Sans Serif" 9.;#P newex 20 154 27 196617 t f f;#P newex 20 177 155 196617 expr tan($f2)/sqrt($f1);#P newex 188 100 27 196617 t b f;#P newex 165 151 63 196617 * 3.141593;#P newex 165 128 50 196617 / 44100.;#P newex 99 22 45 196617 loadbang;#P newex 99 84 28 196617 f $2;#P message 61 60 38 196617 set $1;#P newex 130 84 28 196617 f $4;#P inlet 20 21 15 0;#P inlet 51 21 15 0;#P newex 20 102 41 196617 - 0.;#P newex 20 128 142 196617 expr pow( 10. \\\, $f1 * 0.05);#P newex 44 267 109 196617 expr ($f1-1)/($f1+1);#P newex 70 243 109 196617 expr ($f1-1)/($f1+1);#P outlet 70 323 15 0;#P outlet 44 323 15 0;#P outlet 20 323 15 0;#P inlet 165 21 15 0;#P newex 20 221 27 196617 * 1.;#P newex 20 243 34 196617 t f f;#P newex 20 199 110 196617 t f f f;#P newex 20 292 110 196617 expr ($f1+1)/($f2+1);#P connect 13 0 11 0;#P connect 15 0 11 0;#P connect 11 0 10 0;#P connect 10 0 22 0;#P connect 22 0 21 0;#P connect 21 0 1 0;#P connect 1 0 3 0;#P connect 3 0 2 0;#P connect 2 0 0 0;#P connect 0 0 5 0;#P connect 22 1 3 1;#P connect 2 1 9 0;#P connect 9 0 6 0;#P connect 12 0 11 1;#P connect 16 0 11 1;#P connect 17 0 15 0;#P connect 1 1 8 0;#P connect 8 0 7 0;#P connect 17 0 16 0;#P connect 1 2 0 1;#P connect 17 0 14 0;#P connect 4 0 18 0;#P connect 14 0 18 0;#P connect 20 0 18 0;#P connect 18 0 19 0;#P connect 19 0 21 1;#P connect 23 0 20 0;#P connect 20 1 18 1;#P pop;#P newobj 71 171 142 196617 patcher low;#N comlet Middle Boost \, Cut (int \, float) dB;#P inlet 127 49 15 0;#N vpatcher 430 293 680 662;#P inlet 184 18 15 0;#P window setfont "Sans Serif" 9.;#P newex 134 80 28 196617 f $5;#P newex 184 95 27 196617 t b f;#P message 62 63 38 196617 set $2;#P newex 104 80 28 196617 f $3;#P newex 104 18 45 196617 loadbang;#P inlet 161 18 15 0;#P inlet 50 18 15 0;#P inlet 18 18 15 0;#P newex 18 98 42 196617 - 0.;#P newex 18 289 110 196617 expr ($f1+1)/($f2+1);#P newex 18 196 111 196617 t f f f;#P newex 18 240 34 196617 t f f;#P newex 18 218 27 196617 * 1.;#P newex 68 240 109 196617 expr ($f1-1)/($f1+1);#P newex 42 264 109 196617 expr ($f1-1)/($f1+1);#P newex 18 125 142 196617 expr pow( 10. \\\, $f1 * 0.05);#P newex 161 125 50 196617 / 44100.;#P newex 161 151 63 196617 * 3.141593;#P newex 18 174 153 196617 expr tan($f2)/sqrt($f1);#P newex 18 151 27 196617 t f f;#P outlet 18 324 15 0;#P outlet 42 324 15 0;#P outlet 68 324 15 0;#P connect 15 0 14 0;#P connect 20 0 14 0;#P connect 14 0 7 0;#P connect 7 0 3 0;#P connect 3 0 4 0;#P connect 4 0 12 0;#P connect 12 0 10 0;#P connect 10 0 11 0;#P connect 11 0 13 0;#P connect 13 0 2 0;#P connect 3 1 10 1;#P connect 11 1 8 0;#P connect 8 0 1 0;#P connect 16 0 14 1;#P connect 19 0 14 1;#P connect 18 0 20 0;#P connect 12 1 9 0;#P connect 9 0 0 0;#P connect 18 0 19 0;#P connect 12 2 13 1;#P connect 18 0 22 0;#P connect 17 0 6 0;#P connect 21 0 6 0;#P connect 22 0 6 0;#P connect 6 0 5 0;#P connect 5 0 4 1;#P connect 23 0 21 0;#P connect 21 1 6 1;#P pop;#P newobj 104 198 143 196617 patcher high;#N comlet High Boost \, Cut (int \, float) dB;#P inlet 159 49 15 0;#N comlet Low Boost \, Cut (int \, float) dB;#P inlet 20 49 15 0;#P newex 71 100 46 196617 f $1;#P newex 71 124 43 196617 t f b;#P comment 6 322 58 196617 jimmies eq;#P connect 3 0 18 0;#P fasten 11 0 2 0 247 93 76 93;#P connect 18 1 2 0;#P connect 2 0 1 0;#P connect 1 0 7 0;#P connect 7 0 12 0;#P fasten 12 0 19 0 76 255 76 255;#P connect 19 0 15 0;#P fasten 12 1 19 1 115 255 93 255;#P fasten 6 0 5 0 132 93 109 93;#P fasten 1 1 5 0 109 192 109 192;#P connect 5 0 12 1;#P fasten 12 0 20 0 76 255 115 255;#P connect 20 0 14 0;#P fasten 6 0 7 1 132 93 120 93;#P fasten 12 2 20 1 154 255 132 255;#P connect 7 1 12 2;#P fasten 4 0 5 1 164 93 153 93;#P fasten 12 0 21 0 76 255 154 255;#P connect 21 0 13 0;#P fasten 8 0 22 0 188 93 164 93;#P connect 22 0 7 2;#P connect 5 1 12 3;#P connect 12 3 21 1;#P fasten 9 0 22 1 220 93 197 93;#P connect 22 1 5 2;#P fasten 11 1 7 3 264 93 208 93;#P connect 7 2 12 4;#P fasten 12 4 17 0 232 268 232 268;#P fasten 11 1 5 3 264 93 241 93;#P connect 5 2 12 5;#P connect 10 1 11 0;#P fasten 12 5 16 0 271 268 271 268;#P fasten 4 0 12 6 164 93 274 93;#P pop;