max v2;#N vpatcher 383 259 697 449;#P origin 412 81;#P window setfont "Sans Serif" 9.;#P window linecount 1;#P hidden newex 59 222 105 196617 bgcolor 115 127 141;#P hidden message -122 409 83 196617 setsize 317 193;#P window setfont Verdana 9.;#P comment 180 168 129 472055817 2005 sbl;#N plugconfig;#C useviews 0 1 0 0;#C numprograms 1;#C preempt 1;#C sigvschange 1;#C sigvsdefault 32;#C setsize 317 223;#C defaultview ezeq -2 -30 0;#C dragscroll 1;#C infotext;#C package ????;#C welcome ezeq is based on jimmies eq;#C setprogram 1 Nothing 0 0.503937 0.503937 0.503937;#C uniqueid 128 81 204;#C initialpgm 1;#C category 1;#P hidden newobj 93 139 60 472055817 plugconfig;#P message 104 408 54 472055817 recall \$1;#P number 104 388 35 9 0 0 0 7203 0 0 0 221 221 221 222 222 222 0 0 0;#P message 76 360 42 472055817 set \$1;#P number 76 339 35 9 0 0 0 7203 0 0 0 221 221 221 222 222 222 0 0 0;#P number 35 388 35 9 0 0 0 7203 0 0 0 221 221 221 222 222 222 0 0 0;#P message 35 408 64 472055817 capture \$1;#P button 35 349 27 0;#P comment 109 321 56 472055817 Programs;#P comment 27 333 41 472055817 Store!;#P comment 116 340 126 472055817 Store Program Number:;#P comment 145 383 131 472055817 Recall Program Number:;#N pp 3 0 127 Bass;#P hidden newobj -199 155 93 472055817 pp 3 0 127 Bass;#N pp 2 0 127 Mid;#P hidden newobj -197 91 86 472055817 pp 2 0 127 Mid;#N pp 1 0 127 High;#P hidden newobj -198 28 91 472055817 pp 1 0 127 High;#P user dial 2 148 40 40 128 1 0 0 201 270 1 1. 0 0 0 255 255 255 120 120 120 225 225 225 255 255 255 0 0 0;#P user dial 2 85 40 40 128 1 0 0 201 270 1 1. 83 83 83 255 255 255 120 120 120 225 225 225 255 255 255 0 0 0;#P hidden message -300 407 103 472055817 brgb 255 255 255;#P hidden message -299 423 103 472055817 brgb 170 170 170;#P hidden message -299 439 22 472055817 64;#P window setfont Verdana 10.;#P comment 5 4 35 472055818 High;#P user ubutton 3 3 38 16 0 2;#P user panel 2 2 40 19;#X brgb 255 255 255;#X frgb 0 0 0;#X border 1;#X rounded 0;#X shadow 0;#X done;#P window setfont Verdana 9.;#P hidden message -240 314 103 472055817 brgb 255 255 255;#P hidden message -239 330 103 472055817 brgb 170 170 170;#P hidden message -239 346 22 472055817 64;#P window setfont Verdana 10.;#P comment 9 66 27 472055818 Mid;#P user ubutton 3 65 38 16 0 2;#P user panel 2 64 40 19;#X brgb 255 255 255;#X frgb 0 0 0;#X border 1;#X rounded 0;#X shadow 0;#X done;#P window setfont Verdana 9.;#P hidden message -234 218 103 472055817 brgb 255 255 255;#P hidden message -233 234 103 472055817 brgb 170 170 170;#P hidden message -233 250 22 472055817 64;#P hidden user ezdac~ -252 273 -208 306 0;#P window setfont Verdana 10.;#P hidden newex -350 245 59 472055818 plugout~;#P hidden newex -301 204 56 472055818 lum.eq~;#P hidden newex -362 1 51 472055818 plugin~;#P user dial 2 22 40 40 128 1 0 0 201 270 1 1. 157 157 157 255 255 255 120 120 120 225 225 225 255 255 255 0 0 0;#P hidden newex -361 285 36 472055818 dac~;#P hidden newex -366 134 56 472055818 lum.eq~;#P comment 5 130 35 472055818 Bass;#P user ubutton 3 129 38 16 0 2;#P user panel 2 128 40 19;#X brgb 255 255 255;#X frgb 0 0 0;#X border 1;#X rounded 0;#X shadow 0;#X done;#P window setfont Verdana 9.;#P window linecount 2;#P comment 180 6 129 472055817 Sometimes it's the small things that matter.;#P user panel 177 2 135 186;#X brgb 255 255 255;#X frgb 0 0 0;#X border 1;#X rounded 0;#X shadow 0;#X done;#P user fpic 42 1 135 188 ezeqsnow.jpg 0 0 0 0. 0 0 0;#P hidden connect 9 0 6 0;#P hidden connect 11 0 7 0;#P hidden connect 29 0 6 1;#P hidden connect 6 0 11 0;#P hidden connect 28 0 6 2;#P hidden connect 11 1 7 1;#P hidden connect 8 0 6 3;#P hidden connect 9 1 10 0;#P hidden connect 10 0 11 1;#P hidden connect 23 0 27 0;#P hidden connect 23 1 26 0;#P hidden connect 23 1 25 0;#P hidden connect 29 0 10 1;#P hidden connect 28 0 10 2;#P hidden connect 8 0 10 3;#P hidden connect 17 0 21 0;#P hidden connect 17 1 20 0;#P hidden connect 17 1 19 0;#P hidden connect 4 0 15 0;#P hidden connect 4 1 14 0;#P hidden connect 4 1 13 0;#P hidden connect 29 0 32 0;#P hidden connect 8 0 30 0;#P hidden connect 28 0 31 0;#P hidden connect 27 0 22 0;#P hidden connect 26 0 22 0;#P hidden connect 30 0 8 0;#P hidden connect 25 0 8 0;#P hidden connect 20 0 16 0;#P hidden connect 21 0 16 0;#P hidden connect 31 0 28 0;#P hidden connect 19 0 28 0;#P hidden connect 15 0 3 0;#P hidden connect 14 0 3 0;#P hidden connect 32 0 29 0;#P hidden connect 13 0 29 0;#P connect 41 0 39 0;#P connect 37 0 39 0;#P connect 39 0 38 0;#P connect 40 0 41 0;#P hidden connect 46 0 44 0;#P hidden connect 43 0 44 0;#P hidden connect 38 0 44 0;#P connect 42 0 43 0;#P pop;