max v2;#N vpatcher 442 53 740 276;#P origin 0 115;#P window setfont "Sans Serif" 9.;#P window linecount 1;#P message 468 533 62 196617 windowsize;#P comment 115 160 67 196617 Feed the cat!;#P user panel 112 157 75 18;#X brgb 255 255 255;#X frgb 0 0 0;#X border 0;#X rounded 1;#X shadow 0;#X done;#P comment 70 37 148 196617 (†ber)SŠttigung ©2006 sbl;#P user panel 62 33 164 19;#X brgb 255 255 255;#X frgb 0 0 0;#X border 2;#X rounded 1;#X shadow 0;#X done;#P message 413 532 52 196617 capture 1;#N plugconfig;#C useviews 0 1 0 0;#C numprograms 1;#C preempt 1;#C sigvschange 1;#C sigvsdefault 32;#C windowsize;#C defaultview (Ueber)Saettigung 0 0 0;#C dragscroll 1;#C infotext;#C package ????;#C setprogram 1 Nichts 0 0.;#C uniqueid 128 137 254;#C initialpgm 1;#C category 34;#P hidden newobj 204 107 55 196617 plugconfig;#N pp 1 Saturation 0 127;#P hidden newobj 172 62 109 196617 pp 1 Saturation 0 127;#P newex 134 569 187 196617 plugout~;#B color 7;#P newex 108 303 63 196617 plugin~;#P newex 328 465 40 196617 cycle~;#P newex 311 487 27 196617 *~;#B color 7;#P newex 358 415 33 196617 *~ 1.;#B color 7;#P newex 358 441 44 196617 +~ 0.25;#P user hslider 78 177 18 128 128 1 0 0;#P hidden newex 12 83 114 196617 scale 0 127 0.14 0.7 1;#P newex 108 275 31 196617 adc~;#P message 45 597 29 196617 stop;#P message 45 573 67 196617 startwindow;#P newex 134 626 187 196617 dac~;#P hidden newex 381 256 55 196617 append 50;#P hidden newex 381 280 30 196617 line~;#B color 7;#P hidden newex 311 256 53 196617 append 50;#P hidden newex 311 280 30 196617 line~;#B color 7;#P newex 151 462 38 196617 cycle~;#P hidden flonum 12 105 35 9 0 0 0 3 0 0 0 221 221 221 222 222 222 0 0 0;#P hidden newex 60 198 231 196617 expr cos(($f2 - 0.5) * 3.141593 * 0.5) / $f1;#P hidden newex 12 174 24 196617 t 1.;#P hidden newex 12 151 58 196617 split 0. 0.5;#P hidden newex 12 127 55 196617 float 0.14;#P newex 134 487 27 196617 *~;#B color 7;#P newex 179 415 33 196617 *~ 1.;#B color 7;#P newex 179 440 44 196617 +~ 0.25;#P comment 37 344 61 196617 DC_OFFSET;#P user fpic -3 23 302 202 band.jpg 0 0 0 0. 0 0 0;#X interp 1;#P hidden connect 20 0 19 0;#P hidden connect 19 0 9 0;#P hidden connect 9 0 5 0;#P hidden connect 5 0 6 0;#P hidden connect 6 0 7 0;#P hidden connect 6 1 8 0;#P hidden connect 27 0 20 0;#P connect 18 0 25 0;#P fasten 11 0 4 0 316 400 139 400;#P connect 4 0 26 0;#P connect 26 0 15 0;#P fasten 17 0 15 0 50 619 139 619;#P fasten 16 0 15 0 50 593 139 593;#P connect 10 0 4 1;#P connect 18 1 25 1;#P hidden connect 20 0 27 0;#P connect 25 0 3 0;#P connect 3 0 2 0;#P connect 2 0 10 1;#P fasten 13 0 3 1 386 355 207 355;#P hidden connect 34 0 28 0;#P hidden connect 29 0 28 0;#P hidden connect 6 1 8 1;#P hidden connect 7 0 12 0;#P hidden connect 8 0 12 0;#P hidden connect 12 0 11 0;#P connect 11 0 23 0;#P connect 23 0 26 1;#P connect 26 1 15 1;#P connect 24 0 23 1;#P connect 25 1 22 0;#P connect 22 0 21 0;#P connect 21 0 24 1;#P hidden connect 5 0 14 0;#P hidden connect 14 0 13 0;#P connect 13 0 22 1;#P pop;