max v2;#N vpatcher 374 135 566 287;#P origin -2452 -387;#P window setfont "Sans Serif" 9.;#P comment 176 134 13 196617 g;#N pp 7 vol -72. 12. dB;#P hidden newobj 215 156 101 196617 pp 7 vol -72. 12. dB;#P comment 177 58 13 196617 -;#P flonum 176 381 35 9 0 0 0 3 0 0 0 221 221 221 222 222 222 0 0 0;#P newex -135 411 34 196617 dbtoa;#P user multiSlider 175 47 14 101 -72. 12. 1 2681 47 0 1 2 0 0 0;#M frgb 197 1 6;#M brgb 255 255 255;#M rgb2 127 127 127;#M rgb3 0 0 0;#M rgb4 37 52 91;#M rgb5 74 105 182;#M rgb6 112 158 18;#M rgb7 149 211 110;#M rgb8 187 9 201;#M rgb9 224 62 37;#M rgb10 7 114 128;#P message -328 445 37 196617 \$1 10;#P newex -328 462 44 196617 line~ 0.;#P newex -382 496 27 196617 *~;#P newex -431 496 27 196617 *~;#P message 15 249 45 196617 recall 2;#P message -4 230 45 196617 recall 1;#P user umenu 2 98 171 196647 1 64 114 1;#X setrgb 0 0 0 255 255 255 255 255 255 221 221 221 255 255 255 255 255 255 255 255 255;#X add none;#X add lowpass;#X add highpass;#X add bandpass;#X add bandstop;#P message -43 341 62 196617 windowsize;#P message 30 297 100 196617 capture 2 Showcase;#P message 6 276 80 196617 capture 1 Clean;#N plugconfig;#C useviews 0 1 0 0;#C numprograms 2;#C preempt 1;#C sigvschange 1;#C sigvsdefault 32;#C windowsize;#C defaultview Interface 0 0 0;#C dragscroll 1;#C infotext;#C package ????;#C setprogram 1 Clean 0 0. 0. 0. 0. 0. 0. 0.857143;#C setprogram 2 Showcase 0 0.285714 0.029762 0.071429 0.75 0.748031 0.375 0.828283;#C uniqueid 128 112 166;#C initialpgm 1;#C category 97;#P hidden newobj 70 31 55 196617 plugconfig;#N pp 6 filterQ 0.5 12.;#P hidden newobj 215 136 98 196617 pp 6 filterQ 0.5 12.;#N pp 5 filterfreq 0 127;#P hidden newobj 215 115 105 196617 pp 5 filterfreq 0 127;#N pp 4 filtertype 0 4;#P hidden newobj 215 96 97 196617 pp 4 filtertype 0 4;#N pp 3 Drive 1. 24.;#P hidden newobj 215 75 87 196617 pp 3 Drive 1. 24.;#N pp 2 Bits 0. 1.;#P hidden newobj 215 53 74 196617 pp 2 Bits 0. 1.;#N pp 1 Downsample 0. 1.;#P hidden newobj 215 34 111 196617 pp 1 Downsample 0. 1.;#P user ezdac~ -197 459 -153 492 0;#P newex -432 534 48 196617 plugout~;#P newex -433 559 31 196617 dac~;#P newex -465 -28 202 196617 adc~;#P newex -465 -3 202 196617 plugin~;#P message -156 248 14 196617 1;#P newex -120 248 31 196617 t 2 s;#P newex -156 218 46 196617 sel none;#P newex -335 409 71 196617 selector~ 2 1;#P newex -259 292 135 196617 scale 0 127 80. 8000. 1.04;#P newex -213 317 41 196617 sig~ 1.;#P newex -259 349 102 196617 filtercoeff~ lowpass;#P newex -275 383 79 196617 biquad~;#P newex -274 243 35 196617 *~ 1.;#P newex -275 265 61 196617 clip~ -1. 1.;#P newex -206 147 87 196617 zmap 0. 1. 0. 0.2;#P newex -221 90 87 196617 zmap 0. 1. 0. 48.;#P newex -273 202 77 196617 round~;#P newex -273 146 62 196617 downsamp~;#P message -348 248 14 196617 1;#P newex -312 248 31 196617 t 2 s;#P newex -348 218 46 196617 sel none;#P newex -527 409 71 196617 selector~ 2 1;#P newex -451 292 135 196617 scale 0 127 80. 8000. 1.04;#P newex -405 317 41 196617 sig~ 1.;#P newex -451 349 102 196617 filtercoeff~ lowpass;#P newex -467 383 79 196617 biquad~;#P newex -466 243 35 196617 *~ 1.;#P newex -467 265 61 196617 clip~ -1. 1.;#P comment 4 65 25 196617 bits;#P comment 4 49 64 196617 downsample;#P newex -398 147 87 196617 zmap 0. 1. 0. 0.2;#P newex -413 90 87 196617 zmap 0. 1. 0. 48.;#P newex -465 202 77 196617 round~;#P newex -465 146 62 196617 downsamp~;#P user multiSlider 3 47 170 15 0. 1. 1 2680 47 0 0 2 0 0 0;#M frgb 255 26 9;#M brgb 255 255 255;#M rgb2 127 127 127;#M rgb3 0 0 0;#M rgb4 37 52 91;#M rgb5 74 105 182;#M rgb6 112 158 18;#M rgb7 149 211 110;#M rgb8 187 9 201;#M rgb9 224 62 37;#M rgb10 7 114 128;#P user multiSlider 3 64 170 15 0. 1. 1 2680 47 0 0 2 0 0 0;#M frgb 9 122 255;#M brgb 255 255 255;#M rgb2 127 127 127;#M rgb3 0 0 0;#M rgb4 37 52 91;#M rgb5 74 105 182;#M rgb6 112 158 18;#M rgb7 149 211 110;#M rgb8 187 9 201;#M rgb9 224 62 37;#M rgb10 7 114 128;#P comment 4 82 34 196617 drive;#P user multiSlider 3 81 170 15 1. 24. 1 2680 47 0 0 2 0 0 0;#M frgb 234 106 30;#M brgb 255 255 255;#M rgb2 127 127 127;#M rgb3 0 0 0;#M rgb4 37 52 91;#M rgb5 74 105 182;#M rgb6 112 158 18;#M rgb7 149 211 110;#M rgb8 187 9 201;#M rgb9 224 62 37;#M rgb10 7 114 128;#P comment 4 118 53 196617 filterfreq;#P comment 4 135 40 196617 filterQ;#P user multiSlider 3 116 170 15 0. 127. 1 2664 47 0 0 2 0 0 0;#M frgb 255 228 9;#M brgb 255 255 255;#M rgb2 127 127 127;#M rgb3 0 0 0;#M rgb4 37 52 91;#M rgb5 74 105 182;#M rgb6 112 158 18;#M rgb7 149 211 110;#M rgb8 187 9 201;#M rgb9 224 62 37;#M rgb10 7 114 128;#P user multiSlider 3 133 170 15 0.5 12. 1 2680 47 0 0 2 0 0 0;#M frgb 81 255 25;#M brgb 255 255 255;#M rgb2 127 127 127;#M rgb3 0 0 0;#M rgb4 37 52 91;#M rgb5 74 105 182;#M rgb6 112 158 18;#M rgb7 149 211 110;#M rgb8 187 9 201;#M rgb9 224 62 37;#M rgb10 7 114 128;#P window setfont "Arial Black" 12.;#P comment 5 29 100 791478284 Channelstrip;#P window setfont "Sans Serif" 9.;#P comment 121 33 50 196617 2007 sbl;#P comment -350 -67 42 196617 stinger;#P comment 175 133 13 196617 g;#P connect 26 0 24 0;#P connect 27 0 24 0;#P connect 18 0 24 1;#P connect 19 0 18 0;#P connect 18 0 20 0;#P connect 20 0 24 2;#P connect 13 0 19 0;#P connect 43 0 42 0;#P connect 42 0 12 0;#P connect 12 0 13 0;#P connect 21 0 20 1;#P hidden connect 5 0 23 0;#P connect 23 0 21 0;#P connect 26 1 21 0;#P hidden connect 8 0 19 1;#P connect 21 1 20 2;#P connect 45 0 44 0;#P connect 60 0 45 0;#P connect 24 0 60 0;#P connect 21 2 20 3;#P connect 21 3 20 4;#P connect 62 0 60 1;#P hidden connect 11 0 14 0;#P connect 14 0 12 1;#P connect 45 1 44 1;#P connect 22 0 21 1;#P connect 21 4 20 5;#P hidden connect 10 0 15 0;#P connect 15 0 13 1;#P connect 61 0 45 1;#P connect 38 0 61 0;#P connect 62 0 61 1;#P hidden connect 4 0 21 2;#P hidden connect 57 1 25 0;#P connect 25 0 27 0;#P connect 41 0 38 0;#P connect 40 0 38 0;#P connect 65 0 63 0;#P connect 63 0 62 0;#P connect 25 1 26 0;#P connect 32 0 38 1;#P connect 33 0 32 0;#P connect 32 0 34 0;#P connect 34 0 38 2;#P connect 29 0 33 0;#P connect 43 1 42 1;#P connect 42 1 28 0;#P connect 28 0 29 0;#P connect 35 0 34 1;#P hidden connect 5 0 37 0;#P connect 40 1 35 0;#P connect 37 0 35 0;#P hidden connect 8 0 33 1;#P connect 35 1 34 2;#P connect 35 2 34 3;#P connect 35 3 34 4;#P hidden connect 11 0 30 0;#P connect 30 0 28 1;#P connect 36 0 35 1;#P connect 35 4 34 5;#P hidden connect 10 0 31 0;#P connect 31 0 29 1;#P hidden connect 4 0 35 2;#P hidden connect 57 1 39 0;#P connect 39 0 41 0;#P hidden connect 64 0 65 0;#P connect 39 1 40 0;#P hidden connect 50 0 57 0;#P hidden connect 47 0 11 0;#P hidden connect 48 0 10 0;#P hidden connect 49 0 8 0;#P hidden connect 51 0 5 0;#P hidden connect 52 0 4 0;#P hidden connect 54 0 53 0;#P hidden connect 55 0 53 0;#P hidden connect 56 0 53 0;#P hidden connect 58 0 53 0;#P hidden connect 59 0 53 0;#P hidden connect 68 0 64 0;#P hidden connect 64 0 66 0;#P hidden connect 11 0 47 0;#P hidden connect 10 0 48 0;#P hidden connect 8 0 49 0;#P hidden connect 57 0 50 0;#P hidden connect 5 0 51 0;#P hidden connect 4 0 52 0;#P hidden connect 64 0 68 0;#P pop;