max v2;#N vpatcher 417 44 617 212;#P origin -1809 -187;#P hidden user ezdac~ -274 465 -230 498 0;#P window setfont "Sans Serif" 9.;#P hidden message 151 362 14 196617 0;#P hidden message 180 362 26 196617 127;#P user multiSlider 94 34 15 129 0. 157. 1 2665 47 0 1 2 0 60 1;#M frgb 0 0 0;#M brgb 255 255 255;#M rgb2 127 127 127;#M rgb3 0 0 0;#M rgb4 37 52 91;#M rgb5 74 105 182;#M rgb6 112 158 18;#M rgb7 149 211 110;#M rgb8 187 9 201;#M rgb9 224 62 37;#M rgb10 7 114 128;#P user multiSlider 79 34 15 129 0. 127. 1 2681 47 0 1 2 0 60 1;#M frgb 0 0 0;#M brgb 255 255 255;#M rgb2 127 127 127;#M rgb3 0 0 0;#M rgb4 37 52 91;#M rgb5 74 105 182;#M rgb6 112 158 18;#M rgb7 149 211 110;#M rgb8 187 9 201;#M rgb9 224 62 37;#M rgb10 7 114 128;#P user multiSlider 58 34 15 129 0. 157. 1 2665 47 0 1 2 0 60 1;#M frgb 0 0 0;#M brgb 255 255 255;#M rgb2 127 127 127;#M rgb3 0 0 0;#M rgb4 37 52 91;#M rgb5 74 105 182;#M rgb6 112 158 18;#M rgb7 149 211 110;#M rgb8 187 9 201;#M rgb9 224 62 37;#M rgb10 7 114 128;#P user multiSlider 43 34 15 129 0. 127. 1 2681 47 0 1 2 0 60 1;#M frgb 0 0 0;#M brgb 255 255 255;#M rgb2 127 127 127;#M rgb3 0 0 0;#M rgb4 37 52 91;#M rgb5 74 105 182;#M rgb6 112 158 18;#M rgb7 149 211 110;#M rgb8 187 9 201;#M rgb9 224 62 37;#M rgb10 7 114 128;#P user multiSlider 23 34 15 129 0. 157. 1 2665 47 0 1 2 0 60 1;#M frgb 0 0 0;#M brgb 255 255 255;#M rgb2 127 127 127;#M rgb3 0 0 0;#M rgb4 37 52 91;#M rgb5 74 105 182;#M rgb6 112 158 18;#M rgb7 149 211 110;#M rgb8 187 9 201;#M rgb9 224 62 37;#M rgb10 7 114 128;#P hidden newex -326 74 31 196617 adc~;#P hidden newex -337 453 31 196617 dac~;#P hidden newex 293 216 49 196617 delay 30;#P hidden newex 293 194 48 196617 loadbang;#P hidden message 205 184 64 196617 clear \, 0 0 1;#P hidden message 148 86 62 196617 windowsize;#P comment 160 68 24 196617 m-h;#P hidden message -130 416 49 196617 recall \$1;#P hidden number -130 396 35 9 0 0 0 3 0 0 0 221 221 221 222 222 222 0 0 0;#P hidden message -158 368 35 196617 set \$1;#P hidden number -158 347 35 9 0 0 0 3 0 0 0 221 221 221 222 222 222 0 0 0;#P hidden number -199 396 35 9 0 0 0 3 0 0 0 221 221 221 222 222 222 0 0 0;#P hidden message -199 416 55 196617 capture \$1;#P hidden button -199 357 27 0;#P hidden comment -125 329 51 196617 Programs;#P hidden comment -207 341 35 196617 Store!;#P hidden comment -118 348 115 196617 Store Program Number:;#P window linecount 2;#P hidden comment -91 390 114 196617 Recall Program Number:;#P window linecount 1;#N plugconfig;#C useviews 0 1 0 1;#C numprograms 4;#C preempt 1;#C sigvschange 1;#C sigvsdefault 32;#C windowsize;#C defaultview BandClip 0 0 0;#C dragscroll 1;#C infotext BandClip by sbl <P> some simple 3-band distortion. control the clipping distortion and output volume of a low\, mid and hi frequency band as specified with the xover-values.;#C package ????;#C setprogram 1 clean 0 0.033079 0.187817 0. 0.803797 0. 0.803797 0. 0.803797 0. 0. 0.25 0.860465;#C setprogram 2 "bottom up" 0 0.096183 0.187817 0.440945 0.803797 0. 0.696203 0.047244 0.803797 0. 0. 0.25 0.824651;#C setprogram 3 "mid fetish" 0 0.069466 0.064772 0.165354 0.110236 0.874016 0.716535 0. 0. 0.5 0. 0.25 0.836628;#C setprogram 4 "dirty hipass" 0 0. 0.629645 0. 0. 0. 0. 0.393701 0.734177 0. 0. 0.25 0.860465;#C uniqueid 210 70 74;#C swirl;#C initialpgm 1;#C category 35;#P hidden newobj 145 124 54 196617 plugconfig;#N pp 12 main_out -74. 12.;#P hidden newobj 251 121 120 196617 pp 12 main_out -74. 12.;#N pp 8 hiout 0 158;#P hidden newobj -116 83 84 196617 pp 8 hiout 0 158;#N pp 7 hidisto 0 127;#P hidden newobj -216 83 92 196617 pp 7 hidisto 0 127;#N pp 6 midout 0 158;#P hidden newobj -115 31 92 196617 pp 6 midout 0 158;#N pp 5 middisto 0 127;#P hidden newobj -273 16 100 196617 pp 5 middisto 0 127;#N pp 4 lowout 0 158;#P hidden newobj -115 -22 92 196617 pp 4 lowout 0 158;#N pp 3 lowdisto 0 127;#P hidden newobj -258 -22 100 196617 pp 3 lowdisto 0 127;#N pp 2 xover_mtoh 150 10000;#P hidden newobj 240 52 141 196617 pp 2 xover_mtoh 150 10000;#N pp 1 xover_ltom 70 4000;#P hidden newobj 240 2 127 196617 pp 1 xover_ltom 70 4000;#N vpatcher 31 44 667 631;#P window setfont "Sans Serif" 9.;#P window linecount 0;#P newex 517 377 55 196617 r ---hiout;#P newex 318 375 63 196617 r ---midout;#P newex 167 371 63 196617 r ---lowout;#P newex 514 134 63 196617 r ---hidisto;#P newex 334 131 71 196617 r ---middisto;#P newex 140 132 71 196617 r ---lowdisto;#P newex 404 31 51 196617 r ---m-h;#P newex 160 35 49 196617 r ---l-m;#P user gain~ 433 428 15 13 158 0 1.071519 7.94321 10.;#P user gain~ 246 428 15 13 158 0 1.071519 7.94321 10.;#P user gain~ 90 428 15 13 158 0 1.071519 7.94321 10.;#P window linecount 1;#P newex 246 100 197 196617 cross~ 1907;#P newex 90 100 149 196617 cross~ 240;#P comment 439 52 24 196617 m-h;#P comment 233 50 24 196617 l-m;#P comment 562 158 24 196617 hi;#P comment 377 158 24 196617 mid;#N vpatcher 47 74 647 474;#P outlet 148 99 15 0;#P inlet 148 50 15 0;#P connect 0 0 1 0;#P pop;#P newobj 90 481 35 196617 p thru;#P newex 90 512 354 196617 matrix~ 4 1;#P comment 480 383 24 196617 high;#P comment 276 376 24 196617 mid;#P comment 105 378 24 196617 low;#P flonum 560 177 35 9 0. 55. 3 3 0 0 0 221 221 221 222 222 222 0 0 0;#P newex 433 338 137 196617 *~ 1.;#P message 560 237 35 196617 \$1 10;#P newex 560 284 45 196617 line~ 1.;#P newex 560 214 33 196617 dbtoa;#P newex 433 401 60 196617 clip~ -1. 1.;#P comment 597 177 19 196617 dB;#P flonum 373 177 35 9 0. 55. 3 3 0 0 0 221 221 221 222 222 222 0 0 0;#P newex 246 338 137 196617 *~ 1.;#P message 373 237 35 196617 \$1 10;#P newex 373 284 45 196617 line~ 1.;#P newex 373 214 33 196617 dbtoa;#P newex 246 401 60 196617 clip~ -1. 1.;#P comment 410 177 19 196617 dB;#P number 433 72 35 9 150 0 1 3 0 0 0 221 221 221 222 222 222 0 0 0;#P number 229 72 35 9 70 0 1 3 0 0 0 221 221 221 222 222 222 0 0 0;#P flonum 217 177 35 9 0. 55. 3 3 0 0 0 221 221 221 222 222 222 0 0 0;#P objectname flonum;#P newex 90 338 137 196617 *~ 1.;#P message 217 237 35 196617 \$1 10;#P newex 217 284 45 196617 line~ 1.;#P newex 217 214 33 196617 dbtoa;#P newex 90 401 60 196617 clip~ -1. 1.;#P comment 254 177 19 196617 dB;#P comment 447 101 90 196617 crossover-filters;#P comment 216 158 24 196617 low;#P comment 50 515 38 196617 listen:;#P inlet 90 80 15 0;#P inlet 169 482 15 0;#P outlet 90 534 15 0;#P connect 2 0 38 0;#P connect 38 0 11 0;#P connect 11 0 7 0;#P connect 7 0 40 0;#P connect 48 0 40 0;#P fasten 42 0 33 0 438 476 95 476;#P fasten 41 0 33 0 251 472 95 472;#P fasten 40 0 33 0 95 472 95 472;#P fasten 1 0 32 0 174 504 95 504;#P connect 33 0 32 0;#P connect 32 0 0 0;#P fasten 40 0 32 1 95 466 209 466;#P connect 45 0 12 0;#P connect 12 0 8 0;#P connect 8 0 10 0;#P connect 10 0 9 0;#P connect 9 0 11 1;#P connect 43 0 13 0;#P connect 13 0 38 1;#P connect 38 1 39 0;#P connect 39 0 20 0;#P connect 20 0 16 0;#P connect 16 0 41 0;#P connect 49 0 41 0;#P fasten 41 0 32 2 251 487 323 487;#P connect 46 0 21 0;#P connect 21 0 17 0;#P connect 17 0 19 0;#P connect 19 0 18 0;#P connect 18 0 20 1;#P fasten 42 0 32 3 438 487 437 487;#P connect 44 0 14 0;#P connect 14 0 39 1;#P connect 39 1 27 0;#P connect 27 0 23 0;#P connect 23 0 42 0;#P connect 50 0 42 0;#P connect 47 0 28 0;#P connect 28 0 24 0;#P connect 24 0 26 0;#P connect 26 0 25 0;#P connect 25 0 27 1;#P pop;#P hidden newobj -243 247 79 196617 p right_channel;#P objectname left_channel[1];#P hidden newex 94 350 55 196617 s ---hiout;#P hidden newex 94 331 63 196617 s ---midout;#P hidden newex 94 313 63 196617 s ---lowout;#P hidden newex 11 351 63 196617 s ---hidisto;#P hidden newex 11 332 71 196617 s ---middisto;#P hidden newex 11 314 71 196617 s ---lowdisto;#P hidden newex 239 72 51 196617 s ---m-h;#P hidden newex 240 24 49 196617 s ---l-m;#P hidden newex -263 380 30 196617 *~;#P user com 118 105 74 196617 7;#K set 0 28001 26990 8303 30068 8232 25666 10554;#K end;#P flonum 118 120 35 9 -74. 12. 35 3 0 0 0 255 255 255 222 222 222 0 0 0;#P hidden message -324 313 37 196617 \$1 10;#P hidden newex -324 294 35 196617 dbtoa;#P hidden newex -324 340 47 196617 line~ 1.;#P hidden newex -344 381 30 196617 *~;#P number 118 67 35 9 150 10000 35 3 0 0 0 255 255 255 222 222 222 0 0 0;#P number 118 49 35 9 70 4000 35 3 0 0 0 255 255 255 222 222 222 0 0 0;#P user multiSlider 8 34 15 129 0. 127. 1 2665 47 0 1 2 0 60 1;#M frgb 0 0 0;#M brgb 255 255 255;#M rgb2 127 127 127;#M rgb3 0 0 0;#M rgb4 37 52 91;#M rgb5 74 105 182;#M rgb6 112 158 18;#M rgb7 149 211 110;#M rgb8 187 9 201;#M rgb9 224 62 37;#M rgb10 7 114 128;#P hidden newex -344 408 91 196617 plugout~;#P hidden newex -344 153 111 196617 plugin~;#P user matrixctrl 118 136 36 10 ad.matrix06.pct MatrixDefaultBkgnd.pct 36 10 7 7 4 1 8 8 1 1 305 2 0 0;#P objectname listen;#P hidden comment -338 120 100 196617 multiband_distortion;#P user com 118 35 70 196617 6;#K set 0 30831 30309 29216 10344 31273 14848;#K end;#P comment 118 149 34 196617 reset;#P user panel 118 148 35 15;#X brgb 255 255 255;#X frgb 0 0 0;#X border 1;#X rounded 0;#X shadow 0;#X done;#N vpatcher 31 44 667 631;#P window setfont "Sans Serif" 9.;#P window linecount 0;#P newex 517 377 55 196617 r ---hiout;#P newex 318 375 63 196617 r ---midout;#P newex 167 371 63 196617 r ---lowout;#P newex 514 134 63 196617 r ---hidisto;#P newex 334 131 71 196617 r ---middisto;#P newex 140 132 71 196617 r ---lowdisto;#P newex 404 31 51 196617 r ---m-h;#P newex 160 35 49 196617 r ---l-m;#P user gain~ 433 428 15 13 158 0 1.071519 7.94321 10.;#P user gain~ 246 428 15 13 158 0 1.071519 7.94321 10.;#P user gain~ 90 428 15 13 158 0 1.071519 7.94321 10.;#P window linecount 1;#P newex 246 100 197 196617 cross~ 1907;#P newex 90 100 149 196617 cross~ 240;#P comment 439 52 24 196617 m-h;#P comment 233 50 24 196617 l-m;#P comment 562 158 24 196617 hi;#P comment 377 158 24 196617 mid;#N vpatcher 47 74 647 474;#P outlet 148 99 15 0;#P inlet 148 50 15 0;#P connect 0 0 1 0;#P pop;#P newobj 90 481 35 196617 p thru;#P newex 90 512 354 196617 matrix~ 4 1;#P comment 480 383 24 196617 high;#P comment 276 376 24 196617 mid;#P comment 105 378 24 196617 low;#P flonum 560 177 35 9 0. 55. 3 3 0 0 0 221 221 221 222 222 222 0 0 0;#P newex 433 338 137 196617 *~ 1.;#P message 560 237 35 196617 \$1 10;#P newex 560 284 45 196617 line~ 1.;#P newex 560 214 33 196617 dbtoa;#P newex 433 401 60 196617 clip~ -1. 1.;#P comment 597 177 19 196617 dB;#P flonum 373 177 35 9 0. 55. 3 3 0 0 0 221 221 221 222 222 222 0 0 0;#P newex 246 338 137 196617 *~ 1.;#P message 373 237 35 196617 \$1 10;#P newex 373 284 45 196617 line~ 1.;#P newex 373 214 33 196617 dbtoa;#P newex 246 401 60 196617 clip~ -1. 1.;#P comment 410 177 19 196617 dB;#P number 433 72 35 9 150 0 1 3 0 0 0 221 221 221 222 222 222 0 0 0;#P number 229 72 35 9 70 0 1 3 0 0 0 221 221 221 222 222 222 0 0 0;#P flonum 217 177 35 9 0. 55. 3 3 0 0 0 221 221 221 222 222 222 0 0 0;#P objectname flonum;#P newex 90 338 137 196617 *~ 1.;#P message 217 237 35 196617 \$1 10;#P newex 217 284 45 196617 line~ 1.;#P newex 217 214 33 196617 dbtoa;#P newex 90 401 60 196617 clip~ -1. 1.;#P comment 254 177 19 196617 dB;#P comment 447 101 90 196617 crossover-filters;#P comment 216 158 24 196617 low;#P comment 50 515 38 196617 listen:;#P inlet 90 80 15 0;#P inlet 169 482 15 0;#P outlet 90 534 15 0;#P connect 2 0 38 0;#P connect 38 0 11 0;#P connect 11 0 7 0;#P connect 48 0 40 0;#P connect 7 0 40 0;#P fasten 42 0 33 0 438 476 95 476;#P fasten 41 0 33 0 251 472 95 472;#P fasten 40 0 33 0 95 472 95 472;#P connect 33 0 32 0;#P fasten 1 0 32 0 174 504 95 504;#P connect 32 0 0 0;#P fasten 40 0 32 1 95 466 209 466;#P connect 45 0 12 0;#P connect 12 0 8 0;#P connect 8 0 10 0;#P connect 10 0 9 0;#P connect 9 0 11 1;#P connect 43 0 13 0;#P connect 13 0 38 1;#P connect 38 1 39 0;#P connect 39 0 20 0;#P connect 20 0 16 0;#P connect 49 0 41 0;#P connect 16 0 41 0;#P fasten 41 0 32 2 251 487 323 487;#P connect 46 0 21 0;#P connect 21 0 17 0;#P connect 17 0 19 0;#P connect 19 0 18 0;#P connect 18 0 20 1;#P fasten 42 0 32 3 438 487 437 487;#P connect 44 0 14 0;#P connect 14 0 39 1;#P connect 39 1 27 0;#P connect 27 0 23 0;#P connect 50 0 42 0;#P connect 23 0 42 0;#P connect 47 0 28 0;#P connect 28 0 24 0;#P connect 24 0 26 0;#P connect 26 0 25 0;#P connect 25 0 27 1;#P pop;#P hidden newobj -344 247 73 196617 p left_channel;#P objectname left_channel;#N vpatcher 619 464 1219 864;#P window setfont "Sans Serif" 9.;#P newex 98 120 55 196617 zl group 3;#P newex 50 97 58 196617 unpack 0 0;#P newex 50 74 64 196617 route select;#P newex 50 50 115 196617 plugmultiparam 9 3 0 4;#P inlet 50 30 15 0;#P outlet 98 142 15 0;#P connect 1 0 2 0;#P connect 2 0 3 0;#P connect 3 0 4 0;#P connect 4 1 5 0;#P connect 5 0 0 0;#P pop;#P hidden newobj 250 153 76 196617 p matrix_save;#P window setfont "Lucida Grande" 9.;#P comment 153 150 41 67108873 sbl '05;#P window setfont "Sans Serif" 9.;#P comment 160 51 24 196617 l-m;#P user panel 1 30 197 136;#X brgb 223 223 223;#X frgb 0 0 0;#X border 1;#X rounded 0;#X shadow 0;#X done;#P user hint 25 35 53 163 "low control" 1000 100 0 65535 65535 52428 9 3 0 1 0 0 0;#P user hint 118 136 152 148 "output: all\, low\, mid\, hi" 1000 100 0 65535 65535 52428 9 3 0 1 0 0 0;#P user hint 11 34 34 154 "low controls" 1000 100 0 65535 65535 52428 9 3 0 1 0 0 0;#P user hint 82 38 105 158 "hi controls" 1000 100 0 65535 65535 52428 9 3 0 1 0 0 0;#P user hint 45 38 68 158 "mid controls" 1000 100 0 65535 65535 52428 9 3 0 1 0 0 0;#P user ubutton 118 148 35 14 0 0;#P hidden connect 64 0 16 0;#P hidden connect 16 0 10 0;#P hidden connect 10 0 21 0;#P hidden connect 21 0 17 0;#P hidden connect 17 0 63 0;#P hidden fasten 25 0 23 0 123 179 -319 179;#P hidden connect 23 0 24 0;#P hidden connect 24 0 22 0;#P hidden connect 22 0 21 1;#P hidden connect 17 1 63 1;#P hidden fasten 15 0 10 1 123 179 -276 179;#P hidden connect 66 0 41 0;#P hidden fasten 22 0 27 0 -319 368 -258 368;#P hidden connect 27 0 17 1;#P hidden connect 18 0 39 0;#P hidden connect 64 1 16 1;#P hidden connect 16 1 36 0;#P hidden connect 36 0 27 1;#P hidden connect 68 0 43 0;#P hidden connect 55 0 53 0;#P hidden connect 51 0 53 0;#P hidden connect 53 0 52 0;#P hidden fasten 15 0 36 1 123 196 -169 196;#P hidden connect 54 0 55 0;#P hidden connect 56 0 57 0;#P hidden connect 69 0 44 0;#P hidden connect 65 0 40 0;#P hidden connect 67 0 42 0;#P hidden connect 71 0 18 0;#P hidden connect 39 0 18 0;#P hidden connect 18 0 30 0;#P hidden connect 66 0 31 0;#P hidden connect 68 0 32 0;#P hidden connect 70 0 65 0;#P hidden connect 40 0 65 0;#P hidden connect 71 0 66 0;#P hidden connect 41 0 66 0;#P hidden connect 70 0 67 0;#P hidden connect 42 0 67 0;#P hidden connect 71 0 68 0;#P hidden connect 43 0 68 0;#P hidden connect 70 0 69 0;#P hidden connect 44 0 69 0;#P hidden connect 65 0 33 0;#P hidden connect 67 0 34 0;#P hidden connect 69 0 35 0;#P hidden connect 37 0 19 0;#P hidden connect 38 0 20 0;#P hidden connect 45 0 25 0;#P hidden connect 9 0 15 0;#P hidden connect 60 0 15 0;#P hidden connect 62 0 0 0;#P hidden connect 59 0 46 0;#P hidden connect 52 0 46 0;#P hidden fasten 57 0 46 0 -125 437 150 437;#P hidden connect 0 1 71 0;#P hidden connect 0 1 70 0;#P hidden connect 0 1 60 0;#P hidden connect 20 0 29 0;#P hidden connect 19 0 37 0;#P hidden connect 19 0 28 0;#P hidden connect 20 0 38 0;#P hidden connect 15 0 9 0;#P hidden connect 25 0 45 0;#P hidden connect 61 0 62 0;#P pop;