max v2;#N vpatcher 294 44 1084 519;#P window setfont "Sans Serif" 9.;#P window linecount 1;#N plugconfig;#C useviews 1 0 0 0;#C numprograms 6;#C preempt 1;#C sigvschange 1;#C sigvsdefault 32;#C autosize;#C defaultview Interface 0 0 0;#C dragscroll 1;#C noinfo;#C package sbl;#C welcome InFragranti is a pluggo wrapped version of JKC's stutter_pshift2 patch.;#C setprogram 1 "Me Computer No Happy" 0 0.009083 0.25 1. 0.459184 0.38 0.46 0. 0.88 0. 1.;#C setprogram 2 "Slow Motion" 0 1. 0.125 0. 0.510204 0.18 0.1 0. 1. 0. 1.;#C setprogram 3 "I think you should quit smoking" 0 0.016714 1. 1. 1. 1. 0.43 0. 0.86 0. 1.;#C setprogram 4 "Stuck Stuff" 0 0.432283 0.25 0. 0. 0.25 0.83 0.07 0.86 0. 1.;#C setprogram 5 "Deep Sea Diving" 0 1. 0.125 1. 1. 0.29 0.79 0.1 0.93 0. 1.;#C setprogram 6 "Anne Sophie Mutter" 0 0.86611 1. 1. 1. 1. 0.92 0.17 0.93 0. 0.;#C uniqueid 76 49 45;#C initialpgm 1;#C category 32;#P newobj 495 423 54 196617 plugconfig;#P message 564 393 49 196617 recall \$1;#P number 564 373 35 9 0 0 0 3 0 0 0 221 221 221 222 222 222 0 0 0;#P message 536 345 35 196617 set \$1;#P number 536 324 35 9 0 0 0 3 0 0 0 221 221 221 222 222 222 0 0 0;#P number 495 373 35 9 0 0 0 3 0 0 0 221 221 221 222 222 222 0 0 0;#P message 495 393 55 196617 capture \$1;#P button 495 334 27 0;#P comment 569 306 51 196617 Programs;#P comment 487 318 35 196617 Store!;#P comment 576 325 115 196617 Store Program Number:;#P window linecount 2;#P comment 603 367 114 196617 Recall Program Number:;#P window linecount 1;#N pp 10 Delick 0 1 choices nope yep;#P newobj 531 277 160 196617 pp 10 Delick 0 1 choices nope yep;#N pp 9 "Dry Gain" 0. 1. Amp;#P newobj 118 235 125 196617 pp 9 "Dry Gain" 0. 1. Amp;#N pp 8 "Wet Gain" 0. 1. Amp;#P newobj 249 235 125 196617 pp 8 "Wet Gain" 0. 1. Amp;#P flonum 85 259 35 9 0 0 0 3 0 0 0 221 221 221 222 222 222 0 0 0;#P flonum 156 259 35 9 0 0 0 3 0 0 0 221 221 221 222 222 222 0 0 0;#P newex 31 290 64 196617 lum.amp~ 0.;#P newex 102 290 64 196617 lum.amp~ 0.;#P newex 53 355 45 196617 plugout~;#P newex 102 78 41 196617 plugin~;#N pp 7 Dropout 0. 1.;#P newobj 529 213 90 196617 pp 7 Dropout 0. 1.;#N pp 6 Repetition 0. 1.;#P newobj 529 192 100 196617 pp 6 Repetition 0. 1.;#N pp 5 "Amp Variation" 0. 1.;#P newobj 529 172 129 196617 pp 5 "Amp Variation" 0. 1.;#N pp 4 Feedback 0. 0.98;#P newobj 529 153 105 196617 pp 4 Feedback 0. 0.98;#N pp 3 Reverse 0 1 choices nope yep;#P newobj 529 133 164 196617 pp 3 Reverse 0 1 choices nope yep;#N pp 2 Speed 0. 4.;#P newobj 529 113 81 196617 pp 2 Speed 0. 4.;#N pp 1 "Buffer Size" 16 11025 samples;#P newobj 529 87 179 196617 pp 1 "Buffer Size" 16 11025 samples;#P window linecount 2;#P comment 427 263 60 196617 dropout probability;#P comment 346 262 60 196617 repetition probability;#P window linecount 1;#P newex 269 380 45 196617 s ---sps;#P newex 155 121 45 196617 r ---sps;#P comment 424 144 51 196617 declick;#P comment 296 144 48 196617 feedback;#P toggle 427 169 15 0;#P flonum 428 294 53 9 0. 1. 3 3 0 0 0 221 221 221 222 222 222 0 0 0;#P message 428 323 55 196617 dropout \$1;#P flonum 347 294 53 9 0. 1. 3 3 0 0 0 221 221 221 222 222 222 0 0 0;#P flonum 269 294 53 9 0. 1. 3 3 0 0 0 221 221 221 222 222 222 0 0 0;#P message 269 323 55 196617 ampvar \$1;#P message 347 323 52 196617 repeat \$1;#P comment 361 143 51 196617 reverse;#P toggle 362 169 15 0;#P flonum 297 169 37 9 0. 1. 3 3 0 0 0 221 221 221 222 222 222 0 0 0;#P flonum 232 169 42 9 0. 0 1 3 0 0 0 221 221 221 222 222 222 0 0 0;#P window linecount 2;#P comment 232 143 48 196617 playback speed;#P number 167 169 58 9 16 0 1 3 0 0 0 221 221 221 222 222 222 0 0 0;#P window linecount 1;#P newex 102 211 336 196617 stutter_pshift2 44100 256;#P window linecount 2;#P comment 168 142 57 196617 buffer size (samples);#P window setfont "Sans Serif" 14.;#P comment 362 48 358 196622 stutter_pshift2 may be used for pitch shift \, ring modulation and downsampling type effects.;#P window setfont "Sans Serif" 9.;#P comment 268 262 52 196617 amplitude variation;#P fasten 30 0 33 0 107 191 36 191;#P connect 33 0 31 0;#P connect 32 0 31 0;#P hidden connect 37 0 35 0;#P connect 35 0 33 1;#P connect 32 0 31 1;#P connect 33 0 31 1;#P connect 30 0 3 0;#P fasten 19 0 3 0 160 205 107 205;#P connect 3 0 32 0;#P hidden connect 35 0 37 0;#P hidden connect 36 0 34 0;#P connect 34 0 32 1;#P hidden connect 23 0 4 0;#P connect 4 0 3 1;#P hidden connect 24 0 6 0;#P connect 6 0 3 2;#P hidden connect 34 0 36 0;#P hidden connect 27 0 12 0;#P connect 12 0 11 0;#P connect 11 0 20 0;#P fasten 10 0 20 0 352 359 274 359;#P fasten 14 0 20 0 433 359 274 359;#P hidden connect 26 0 7 0;#P connect 7 0 3 3;#P hidden connect 28 0 13 0;#P connect 13 0 10 0;#P hidden connect 25 0 8 0;#P connect 8 0 3 4;#P hidden connect 38 0 16 0;#P connect 16 0 3 5;#P hidden connect 29 0 15 0;#P connect 15 0 14 0;#P connect 43 0 45 0;#P connect 47 0 45 0;#P connect 45 0 44 0;#P connect 49 0 50 0;#P connect 44 0 50 0;#P hidden connect 4 0 23 0;#P hidden connect 6 0 24 0;#P hidden connect 8 0 25 0;#P hidden connect 7 0 26 0;#P hidden connect 12 0 27 0;#P hidden connect 13 0 28 0;#P hidden connect 15 0 29 0;#P hidden connect 16 0 38 0;#P connect 46 0 47 0;#P connect 48 0 49 0;#P pop;