max v2;#N vpatcher 561 121 804 421;#P origin -1025 -254;#P hidden button -82 -45 15 0;#P window setfont "Sans Serif" 9.;#P message -67 400 45 196617 recall 1;#P message -90 363 87 196617 capture 1 default;#N pp 11 wanderfreq 0. 16. Hz;#P hidden newobj 306 316 134 196617 pp 11 wanderfreq 0. 16. Hz;#N pp 10 start 0. 1.;#P hidden newobj 306 294 85 196617 pp 10 start 0. 1.;#N pp 9 "°freq" 0. 16. Hz;#P hidden newobj 306 273 115 196617 pp 9 "°freq" 0. 16. Hz;#N pp 8 "°osc" 0 2;#P hidden newobj 306 252 85 196617 pp 8 "°osc" 0 2;#P newex -265 285 42 196617 plugin~;#N pp 7 "°hi" 0 1000 ms;#P hidden newobj 306 232 112 196617 pp 7 "°hi" 0 1000 ms;#N pp 6 "°low" 0 1000 ms;#P hidden newobj 306 211 120 196617 pp 6 "°low" 0 1000 ms;#N pp 5 pitch -24. 24 semitones;#P hidden newobj 306 190 140 196617 pp 5 pitch -24. 24 semitones;#N pp 4 buffersize 0 2000;#P hidden newobj 306 169 114 196617 pp 4 buffersize 0 2000;#N pp 3 rec 0 1;#P hidden newobj 306 148 65 196617 pp 3 rec 0 1;#N pp 2 wet 0 127;#P hidden newobj 304 440 79 196617 pp 2 wet 0 127;#N pp 1 dry 0 127;#P hidden newobj 304 407 78 196617 pp 1 dry 0 127;#P message -156 367 62 196617 windowsize;#N plugconfig;#C useviews 0 1 0 0;#C numprograms 1;#C preempt 1;#C sigvschange 1;#C sigvsdefault 32;#C windowsize;#C defaultview Interface 0 0 0;#C dragscroll 1;#C infotext;#C package sbl;#C setprogram 1 default 0 0. 1. 1. 0.5 0.25 0.118 0.287 0. 0.009375 0.61 0.036875;#C uniqueid 128 73 236;#C initialpgm 1;#C category 16;#P hidden newobj 167 46 55 196617 plugconfig;#P comment 13 271 25 196617 wet;#P user multiSlider 11 269 221 17 0. 127. 1 2664 47 0 0 2 0 0 0;#M frgb 0 0 0;#M brgb 255 255 255;#M rgb2 127 127 127;#M rgb3 0 0 0;#M rgb4 37 52 91;#M rgb5 74 105 182;#M rgb6 112 158 18;#M rgb7 149 211 110;#M rgb8 187 9 201;#M rgb9 224 62 37;#M rgb10 7 114 128;#P comment 95 54 50 196617 sbl 2006;#P comment 162 205 42 196617 ° freq;#P newex -437 489 48 196617 plugout~;#P comment 67 205 38 196617 ° osc;#P user umenu 11 203 53 196647 1 64 219 1;#X add none;#X add sine;#X add rand;#P user rslider 11 182 221 17 1000 1 0 0 0;#P comment 96 166 62 196617 buffer (ms);#P newex -170 474 27 196617 + 1;#P toggle 11 164 15 0;#P newex -336 55 49 196617 delay~ 1;#P flonum 162 165 35 9 -24. 24. 3 3 0 0 0 221 221 221 222 222 222 0 0 0;#P newex -500 45 56 196617 transratio;#P newex -356 150 72 196617 loadmess 127;#P newex -460 -178 27 196617 t b i;#P newex -484 -131 38 196617 sig~ 0;#P newex -484 -153 29 196617 * 1.;#P flonum 12 223 35 9 0. 1. 3 3 0 0 0 221 221 221 222 222 222 0 0 0;#P newex -460 -209 45 196617 r length;#P hidden newex 178 366 45 196617 s length;#P hidden newex 161 389 66 196617 mstosamps~;#P number 51 164 39 9 0 2000 3 3 0 0 0 221 221 221 222 222 222 0 0 0;#P number -239 -132 35 9 0 0 0 3 0 0 0 221 221 221 222 222 222 0 0 0;#P hidden newex 219 -84 92 196617 receive~ vis_stop;#P hidden newex 120 -84 96 196617 receive~ vis_start;#P newex -293 106 78 196617 send~ vis_stop;#P newex -520 -58 82 196617 send~ vis_start;#P comment -260 -56 24 196617 max;#P number -290 4 35 9 0 0 0 3 0 0 0 221 221 221 222 222 222 0 0 0;#P newex -209 -62 71 196617 selector~ 2 1;#P newex -189 -127 41 196617 *~ 0.5;#P newex -189 -150 31 196617 +~ 1;#P newex -189 -175 49 196617 cycle~ 3;#P newex -335 30 37 196617 +~ 10;#P newex -365 -139 35 196617 sqrt~;#P flonum 117 222 35 9 0. 16. 3 3 0 0 0 221 221 221 222 222 222 0 0 0;#P newex -365 -165 41 196617 *~ 0.5;#P newex -365 -188 31 196617 +~ 1;#P newex -365 -221 45 196617 rand~ 3;#P newex -436 -111 81 196617 *~;#P comment -485 -108 33 196617 start;#P number -317 -116 35 9 0 0 0 3 0 0 0 221 221 221 222 222 222 0 0 0;#P hidden newex 89 513 66 196617 sampstoms~;#P user gain~ -353 315 24 100 158 0 1.071519 7.94321 10.;#P objectname gain~[2];#P user gain~ -378 315 24 100 158 0 1.071519 7.94321 10.;#P objectname gain~[3];#P newex -437 524 48 196617 dac~;#P newex -179 601 75 196617 poke~ stutto 2;#P hidden newex -186 524 144 196617 selector~ 2 2;#P newex -119 495 41 196617 sig~ -1;#P hidden button -1 428 15 0;#P newex -261 600 75 196617 poke~ stutto 1;#P hidden newex 18 398 48 196617 loadbang;#P hidden newex -1 473 76 196617 count~ 0 4410;#P flonum 117 204 35 9 0. 48. 3 3 0 0 0 221 221 221 222 222 222 0 0 0;#P user ezdac~ -537 516 -493 549 0;#P newex -123 -125 41 196617 *~ 0.5;#P newex -123 -148 31 196617 +~ 1;#P newex -123 -173 45 196617 rand~ 3;#P toggle -277 220 15 0;#P objectname toggle[1];#P message -249 219 64 196617 loop 1 \, open;#N sfplay~  2 120960 0 ;#P newobj -266 260 53 196617 sfplay~ 2;#P hidden newex 10 -56 67 196617 loadbang;#P user gain~ -412 169 24 100 158 0 1.071519 7.94321 10.;#P objectname gain~[1];#P hidden user number~ 119 -31 177 -16 9 3 3 2 0. 0. 0 0. 250 0. 0 0 0 221 221 221 222 222 222 0 0 0;#P hidden user number~ 188 -31 246 -16 9 3 3 2 0. 0. 0 0. 50 0. 0 0 0 221 221 221 222 222 222 0 0 0;#P hidden message 10 -32 73 196617 set stutto;#P user waveform~ 10 68 220 92 3 9;#W mode none;#W mouseoutput continuous;#W unit ms;#W grid 1000.;#W ticks 0;#W labels 0;#W vlabels 0;#W vticks 0;#W bpm 120. 4.;#W frgb 33 0 0;#W brgb 198 198 198;#W rgb2 91 91 91;#W rgb3 0 0 0;#W rgb4 0 0 0;#W rgb5 190 137 255;#W rgb6 100 100 100;#W rgb7 100 100 100;#P newex -317 -37 81 196617 *~;#P newex -335 5 27 196617 +~;#P comment -310 -137 35 196617 range;#N vpatcher 48 74 648 474;#P window setfont "Sans Serif" 9.;#P message 134 82 14 196617 1;#P hidden newex 93 50 45 196617 loadbang;#P message 99 82 35 196617 loop 1;#P message 50 82 49 196617 startloop;#P outlet 50 102 15 0;#P hidden connect 3 0 1 0;#P connect 4 0 0 0;#P connect 2 0 0 0;#P connect 1 0 0 0;#P hidden connect 3 0 2 0;#P hidden connect 3 0 4 0;#P pop;#P newobj -487 81 64 196617 p commence;#P user number~ -419 42 -380 57 9 3 3 1 0. 0. 0 0.50006 250 0. 0 0 0 221 221 221 222 222 222 0 0 0;#P user gain~ -437 169 24 100 158 0 1.071519 7.94321 10.;#P objectname gain~;#P message -351 231 29 196617 stop;#P message -362 212 67 196617 startwindow;#P hidden newex 10 -116 110 196617 buffer~ stutto 2000 2;#P newex -419 80 95 196617 stutto_sig stutto 1;#P comment 198 166 32 196617 pitch;#P comment -252 6 24 196617 min;#P comment 162 223 65 196617 wander freq;#P comment 67 224 33 196617 start;#P comment 27 165 23 196617 rec;#P user number~ -317 -58 -262 -43 9 3 3 1 0. 0. 0 287. 250 0. 0 0 0 221 221 221 222 222 222 0 0 0;#P window setfont "Arial Black" 12.;#P comment 78 37 85 791478284 retardando;#P window setfont "Sans Serif" 9.;#P comment 12 248 24 196617 dry;#P user multiSlider 11 246 221 17 0. 127. 1 2664 47 0 0 2 0 0 0;#M frgb 0 0 0;#M brgb 255 255 255;#M rgb2 127 127 127;#M rgb3 0 0 0;#M rgb4 37 52 91;#M rgb5 74 105 182;#M rgb6 112 158 18;#M rgb7 149 211 110;#M rgb8 187 9 201;#M rgb9 224 62 37;#M rgb10 7 114 128;#P user panel 1 32 240 264;#X brgb 255 255 255;#X frgb 0 0 0;#X border 2;#X rounded 0;#X shadow 0;#X done;#P connect 47 0 60 0;#P hidden connect 75 0 74 0;#P hidden connect 69 0 70 0;#P connect 72 0 70 0;#P connect 70 0 71 0;#P connect 72 1 70 1;#P connect 68 0 72 0;#P hidden connect 86 0 14 0;#P connect 10 0 14 0;#P connect 73 0 14 0;#P connect 14 0 83 0;#P connect 42 0 83 0;#P connect 83 0 41 0;#P connect 71 0 47 0;#P connect 74 0 15 0;#P connect 15 0 10 0;#P connect 16 0 10 0;#P connect 10 1 24 0;#P hidden connect 14 1 24 0;#P connect 24 0 83 1;#P connect 43 0 83 1;#P connect 83 1 41 1;#P connect 97 0 42 0;#P hidden connect 1 0 42 0;#P connect 47 0 10 1;#P hidden connect 51 0 48 0;#P connect 48 0 49 0;#P connect 49 0 50 0;#P connect 50 0 52 0;#P connect 52 0 47 1;#P connect 97 1 43 0;#P hidden connect 42 1 43 0;#P connect 53 0 76 0;#P connect 47 0 18 0;#P connect 18 0 53 0;#P connect 76 0 10 2;#P connect 19 0 18 1;#P hidden connect 80 1 45 0;#P connect 45 0 4 0;#P connect 4 0 19 0;#P connect 58 0 53 1;#P connect 53 0 61 0;#P hidden connect 80 0 58 0;#P connect 28 0 26 0;#P connect 27 0 26 0;#P connect 26 0 97 0;#P connect 97 0 36 0;#P connect 57 0 19 1;#P hidden connect 81 0 64 0;#P connect 26 1 97 1;#P connect 39 0 36 1;#P connect 64 0 57 0;#P hidden connect 33 0 54 0;#P connect 54 0 55 0;#P connect 55 0 56 0;#P connect 78 0 39 0;#P connect 56 0 57 1;#P connect 97 1 40 0;#P hidden connect 77 0 78 0;#P connect 31 0 57 2;#P connect 39 0 40 1;#P hidden connect 33 0 29 0;#P connect 29 0 30 0;#P connect 30 0 31 0;#P connect 38 0 39 1;#P hidden connect 77 0 104 0;#P hidden connect 34 0 39 2;#P hidden connect 65 0 37 0;#P hidden connect 37 0 34 0;#P hidden connect 35 0 34 0;#P hidden connect 11 1 25 0;#P hidden connect 25 0 21 0;#P hidden connect 104 0 21 0;#P hidden connect 21 0 20 0;#P hidden connect 92 0 77 0;#P hidden connect 95 0 80 0;#P hidden connect 98 0 81 0;#P hidden connect 90 0 1 0;#P hidden connect 91 0 86 0;#P hidden connect 100 0 69 0;#P hidden connect 93 0 65 0;#P hidden connect 65 0 20 1;#P hidden connect 66 1 34 1;#P hidden connect 34 0 44 0;#P hidden connect 23 1 20 2;#P hidden connect 99 0 33 0;#P hidden connect 101 0 51 0;#P hidden connect 62 0 23 0;#P hidden connect 65 0 66 0;#P hidden connect 94 0 75 0;#P hidden connect 22 1 20 3;#P hidden connect 89 0 88 0;#P hidden connect 102 0 88 0;#P hidden connect 103 0 88 0;#P hidden connect 65 0 67 0;#P hidden connect 63 0 22 0;#P hidden connect 96 0 80 1;#P hidden connect 1 0 90 0;#P hidden connect 86 0 91 0;#P hidden connect 77 0 92 0;#P hidden connect 65 0 93 0;#P hidden connect 75 0 94 0;#P hidden connect 80 0 95 0;#P hidden connect 80 1 96 0;#P hidden connect 81 0 98 0;#P hidden connect 33 0 99 0;#P hidden connect 69 0 100 0;#P hidden connect 51 0 101 0;#P pop;