max v2;#N vpatcher 127 44 263 276;#P origin -3796 -1440;#P window setfont "Sans Serif" 9.;#P hidden newex -81 426 212 196617 buildassist @path bonk~ @extension external;#P message -8 384 49 196617 recall \$1;#P number -8 364 35 9 0 0 0 3 0 0 0 221 221 221 222 222 222 0 0 0;#P message -36 336 35 196617 set \$1;#P number -36 315 35 9 0 0 0 3 0 0 0 221 221 221 222 222 222 0 0 0;#P number -77 364 35 9 0 0 0 3 0 0 0 221 221 221 222 222 222 0 0 0;#P message -77 384 55 196617 capture \$1;#P button -77 325 27 0;#P comment -3 297 51 196617 Programs;#P comment -85 309 35 196617 Store!;#P comment 4 316 115 196617 Store Program Number:;#P window linecount 2;#P comment 31 358 114 196617 Recall Program Number:;#P window linecount 1;#P message 64 405 61 196617 windowsize;#N pp 7 freq-multi -10. 10.;#P hidden newobj 148 207 120 196617 pp 7 freq-multi -10. 10.;#N pp 6 range-high 0 500;#P hidden newobj 147 185 110 196617 pp 6 range-high 0 500;#N pp 5 range-low 0 500;#P hidden newobj 147 163 108 196617 pp 5 range-low 0 500;#N pp 4 range-high 0 1000;#P hidden newobj 147 138 116 196617 pp 4 range-high 0 1000;#N pp 3 range-low 0 1000;#P hidden newobj 147 111 114 196617 pp 3 range-low 0 1000;#N pp 2 % 0 100;#P hidden newobj 147 83 71 196617 pp 2 % 0 100;#N pp 1 sens 0. 1.;#P hidden newobj 147 59 76 196617 pp 1 sens 0. 1.;#P newex -674 -41 31 196617 adc~;#N plugconfig;#C useviews 0 1 0 1;#C numprograms 3;#C preempt 1;#C sigvschange 1;#C sigvsdefault 32;#C windowsize;#C defaultview Interface 0 0 0;#C dragscroll 1;#C infotext Island by sbl <P><P> Automatic Buffer Repper. <P> Sens tunes the beattracking algorithm sensitivity <P> % changes the probability of a repetition <P> buffer range sets the range in ms of the rep buffer<P> repet range set the number of repetitions (between low and hight) <P>the resulting buffer is multiplied by freq multi (0 -> no pitch shift);#C package sbl;#C setprogram 1 default 0 0.17 0.37 0.028 0.092 0.008 0.014 0.5;#C setprogram 2 more 0 0.5 0.56 0.007 0.013 0. 0.052 0.55;#C setprogram 3 "sucked in" 0 0.62 0.84 0.007 0.259 0.036 0.072 0.3;#C uniqueid 184 216 26;#C initialpgm 1;#P hidden newobj 56 208 55 196617 plugconfig;#P comment 53 118 21 196617 < >;#P comment 53 150 21 196617 < >;#P flonum 57 184 35 9 -10. 10. 8227 3 0 0 0 221 221 221 222 222 222 0 0 0;#P objectname ferj;#P newex -194 331 29 196617 * 1.;#P objectname *[1];#P newex -194 230 31 196617 * -1;#P objectname *;#P newex -193 374 56 196617 transratio;#P newex -315 208 47 196617 rate~ 1.;#P newex -494 -23 27 196617 pipe;#N vpatcher 37 59 663 590;#P window setfont "Sans Serif" 9.;#P number 164 361 35 9 0 0 0 3 0 0 0 221 221 221 222 222 222 0 0 0;#P outlet 180 428 15 0;#P newex 212 133 27 196617 - 1;#P objectname -;#P newex 50 350 27 196617 sel;#P newex 51 201 93 196617 thresh~ 0.01 0.99;#N counter;#X flags 0 0;#P newobj 50 276 66 196617 counter;#P newex 50 230 36 196617 edge~;#P number 212 100 35 9 0 0 0 3 0 0 0 221 221 221 222 222 222 0 0 0;#P objectname number[2];#P message 50 395 14 196617 0;#P newex 178 50 30 196617 t b b;#P newex 212 66 71 196617 between 1 20;#P inlet 178 30 15 0;#P inlet 51 181 15 0;#P inlet 242 46 15 0;#P inlet 272 46 15 0;#P outlet 50 415 15 0;#P connect 11 0 9 0;#P connect 9 0 10 0;#P connect 10 0 12 0;#P fasten 12 0 7 0 55 394;#P connect 7 0 0 0;#P connect 3 0 11 0;#P fasten 13 0 12 1 217 320 72 320;#P connect 6 1 10 2;#P connect 10 0 15 0;#P connect 4 0 6 0;#P connect 10 0 14 0;#P connect 6 0 5 0;#P connect 5 0 8 0;#P connect 8 0 13 0;#P connect 2 0 5 1;#P connect 1 0 5 2;#P pop;#P newobj -237 202 53 196617 p counter;#N vpatcher 657 226 1361 820;#P window setfont "Sans Serif" 9.;#P number 241 121 35 9 0 0 0 3 0 0 0 221 221 221 222 222 222 0 0 0;#P newex 198 80 87 196617 scale 0. 1. 127 2;#P newex 296 57 93 196617 scale 0. 1. 127 25;#P newex 138 297 48 196617 loadbang;#P newex 270 173 30 196617 - 20;#P newex 270 199 92 196617 if $i1 > 0 then $i1;#P newex 87 353 20 196617 t b;#P newex 50 524 47 196617 gate 1 0;#P newex 107 496 36 196617 < 100;#P newex 107 470 64 196617 random 100;#P newex 87 444 30 196617 t b b;#P message 138 325 62 196617 debounce 0.;#P number 370 196 35 9 0 0 0 3 0 0 0 221 221 221 222 222 222 0 0 0;#P objectname thresh_hi;#P number 296 82 35 9 0 0 0 3 0 0 0 221 221 221 222 222 222 0 0 0;#P objectname minvel;#P newex 170 228 211 196617 pak thresh 20 20;#P message 106 235 55 196617 minvel \$1;#P newex 86 327 40 196617 bonk~;#P newex 86 145 102 196617 receive~ ---analyse;#P objectname receive~;#P inlet 296 30 15 0;#P inlet 558 146 15 0;#P outlet 50 546 15 0;#P connect 12 0 13 0;#P connect 13 0 0 0;#P connect 5 0 4 0;#P connect 9 0 4 0;#P connect 3 0 4 0;#P connect 6 0 4 0;#P connect 4 0 14 0;#P connect 14 0 10 0;#P connect 10 0 13 1;#P connect 19 0 5 0;#P connect 10 1 11 0;#P connect 11 0 12 0;#P fasten 1 0 12 1 563 495 138 495;#P connect 17 0 9 0;#P connect 2 0 19 0;#P connect 19 0 20 0;#P connect 7 0 16 0;#P connect 16 0 15 0;#P connect 15 0 6 1;#P connect 2 0 18 0;#P connect 18 0 7 0;#P connect 7 0 8 0;#P connect 8 0 6 2;#P pop;#P newobj -494 -144 55 196617 p anaylsis;#P newex -269 53 60 196617 s ---length;#P flonum 28 77 35 9 0. 1. 8227 3 0 0 0 221 221 221 222 222 222 0 0 0;#P objectname flonum;#P number 73 77 35 9 0 100 8227 3 0 0 0 221 221 221 222 222 222 0 0 0;#P objectname number[2];#P newex -774 128 88 196617 send~ ---analyse;#P objectname send~;#P newex -774 98 27 196617 +~;#P newex -782 273 48 196617 loadbang;#P newex -551 50 41 196617 sel 0 1;#P message -782 242 95 196617 clear \, 2 0 1 \, 3 1 1;#P message -782 295 48 196617 ramp 10;#P message -782 223 95 196617 clear \, 0 0 1 \, 1 1 1;#P newex -678 272 77 196617 matrix~ 4 2 1.;#P newex -494 -65 40 196617 t 1 b b;#P number 74 148 35 9 0 50 8195 3 0 0 0 255 255 255 0 0 0 0 0 0;#P objectname highskip[1];#P number 28 149 35 9 0 50 8195 3 0 0 0 255 255 255 0 0 0 0 0 0;#P objectname lowskip[1];#P user ezdac~ -504 416 -460 449 0;#P number 74 114 35 9 0 1000 8195 3 0 0 0 255 255 255 0 0 0 0 0 0;#P objectname highskip;#P number 28 115 35 9 0 1000 8195 3 0 0 0 255 255 255 0 0 0 0 0 0;#P objectname lowskip;#P newex -494 1 27 196617 i;#P newex -504 96 32 196617 sel 1;#P newex -676 69 56 196617 plugin~;#P newex -703 314 188 196617 plugout~;#P newex -504 161 20 196617 t b;#P newex -445 235 140 196617 stutter~ 44100 1028 -1 1 1;#B color 5;#P newex -337 6 83 196617 between 5 1000;#P number -337 28 35 9 0 1000 3 3 0 0 0 221 221 221 222 222 222 0 0 0;#P objectname number[1];#P newex -337 52 66 196617 mstosamps~;#P newex -703 432 188 196617 dac~;#P newex -291 138 44 196617 phasor~;#P newex -281 108 108 196617 expr (44100.0 / $i1);#P number -281 85 75 9 1 0 1 3 0 0 0 221 221 221 222 222 222 0 0 0;#P objectname number;#P newex -623 234 140 196617 stutter~ 44100 1028 -1 1 1;#B color 5;#P comment 25 100 87 196617 buffer range(ms);#P comment 36 133 59 196617 repet range;#P comment 36 169 55 196617 freq multi;#P user panel 24 167 85 34;#X brgb 190 190 190;#X frgb 0 0 0;#X border 0;#X rounded 0;#X shadow 0;#X done;#P user panel 24 131 85 34;#X brgb 190 190 190;#X frgb 0 0 0;#X border 0;#X rounded 0;#X shadow 0;#X done;#P user panel 24 96 85 34;#X brgb 190 190 190;#X frgb 0 0 0;#X border 0;#X rounded 0;#X shadow 0;#X done;#P comment 31 63 30 196617 sens;#P comment 79 63 17 196617 %;#P user panel 24 61 85 34;#X brgb 190 190 190;#X frgb 0 0 0;#X border 0;#X rounded 0;#X shadow 0;#X done;#P window setfont "Arial Black" 12.;#P comment 42 39 50 791478284 Island;#P window setfont "Sans Serif" 9.;#P comment 47 204 50 196617 2005 sbl;#P user panel 2 32 131 197;#X brgb 255 255 255;#X frgb 0 0 0;#X border 2;#X rounded 0;#X shadow 0;#X done;#P connect 36 0 33 0;#P connect 36 1 35 0;#P connect 37 0 34 0;#P connect 23 0 38 0;#P connect 38 0 39 0;#P connect 23 1 38 1;#P connect 32 0 22 0;#P connect 22 0 16 0;#P connect 23 0 32 0;#P connect 35 0 32 0;#P connect 34 0 32 0;#P connect 33 0 32 0;#P connect 54 0 23 0;#P connect 23 1 32 1;#P connect 12 0 32 2;#P connect 54 1 23 1;#P fasten 23 0 12 0 -671 182 -618 182;#P connect 21 0 12 0;#P connect 13 0 12 0;#P connect 20 0 32 3;#P connect 25 0 36 0;#P connect 32 1 22 1;#P connect 22 1 16 1;#P connect 25 0 24 0;#P connect 24 0 21 0;#P hidden connect 41 0 43 0;#P connect 43 0 31 0;#P connect 31 0 45 0;#P connect 45 0 25 0;#P connect 44 0 25 0;#P connect 46 0 12 2;#P connect 18 0 45 1;#P hidden connect 40 0 43 1;#P fasten 23 1 20 0 -625 182 -440 182;#P connect 21 0 20 0;#P connect 13 0 20 0;#P connect 24 0 19 0;#P connect 31 1 19 0;#P connect 19 0 18 0;#P connect 18 0 17 0;#P connect 15 0 46 0;#P connect 46 0 20 2;#P hidden connect 26 0 19 1;#P connect 14 0 15 0;#P connect 17 1 13 0;#P connect 13 0 14 0;#P connect 47 0 46 1;#P connect 18 0 42 0;#P hidden connect 27 0 19 2;#P connect 15 0 44 0;#P connect 31 2 44 1;#P hidden connect 29 0 44 2;#P hidden connect 30 0 44 3;#P connect 44 1 48 0;#P connect 48 0 49 0;#P connect 49 0 47 0;#P hidden connect 50 0 49 1;#P connect 67 0 69 0;#P connect 71 0 69 0;#P connect 69 0 68 0;#P connect 70 0 71 0;#P connect 72 0 73 0;#P hidden connect 55 0 41 0;#P hidden connect 57 0 26 0;#P hidden connect 59 0 29 0;#P hidden connect 62 0 53 0;#P hidden connect 68 0 53 0;#P hidden connect 73 0 53 0;#P hidden connect 61 0 50 0;#P hidden connect 56 0 40 0;#P hidden connect 58 0 27 0;#P hidden connect 60 0 30 0;#P hidden connect 41 0 55 0;#P hidden connect 40 0 56 0;#P hidden connect 26 0 57 0;#P hidden connect 27 0 58 0;#P hidden connect 29 0 59 0;#P hidden connect 30 0 60 0;#P hidden connect 50 0 61 0;#P pop;