max v2;#N vpatcher 103 78 748 607;#P toggle 14 114 15 0;#P window setfont "Sans Serif" 9.;#P window linecount 1;#P newex 196 432 52 196617 dac~;#P newex 14 139 40 196617 adc~;#P flonum 211 108 35 9 0 0 0 3 0 0 0 221 221 221 222 222 222 0 0 0;#N pp 9 "Feedback Amount" 0. 7.;#PP text "Feedback gain factor";#P hidden newobj 387 338 139 196617 pp 9 "Feedback Amount" 0. 7.;#P hidden newex 306 325 59 196617 clip~ -1. 1.;#P hidden newex 99 250 45 196617 loadbang;#P flonum 329 262 35 9 0 0 0 3 0 0 0 221 221 221 222 222 222 0 0 0;#P hidden newex 306 302 33 196617 *~ 0.;#P message 385 449 49 196617 recall \$1;#P number 385 422 35 9 1 0 1 3 0 0 0 221 221 221 222 222 222 0 0 0;#P message 521 448 95 196617 set capture \$1 \\$1;#P message 452 464 65 196617 capture 2 \$1;#P number 521 422 35 9 1 0 1 3 0 0 0 221 221 221 222 222 222 0 0 0;#P button 452 422 15 0;#P newex 452 442 34 196617 dialog;#P hidden message 310 66 19 196617 -1;#P hidden newex 310 45 44 196617 select 0;#P hidden newex 310 24 27 196617 < 0.;#P flonum 387 114 35 9 0 0 0 3 0 0 0 221 221 221 222 222 222 0 0 0;#P hidden newex 211 85 143 196617 expr pow($f1\\\,2.) * $f2 + 1.;#N pp 8 "Feedback Delay" 0 5000 ms;#PP text "Feedback delay time in milliseconds";#P hidden newobj 387 320 158 196617 pp 8 "Feedback Delay" 0 5000 ms;#N pp 7 c3 "Stereo Factor" -3. 3.;#PP text "Adjust stereo spread (1 is centered\, negative values are phase reversed)";#P hidden newobj 387 302 143 196617 pp 7 c3 "Stereo Factor" -3. 3.;#N pp 6 "Grain Pitch" -10. 10.;#PP text "Pitch transposition";#P hidden newobj 387 284 129 196617 pp 6 "Grain Pitch" -10. 10.;#N pp 5 "Grain Crossfade" 0 1000;#PP text "Crossfade between grains in milliseconds";#P hidden newobj 387 266 145 196617 pp 5 "Grain Crossfade" 0 1000;#N pp 4 "Grain Duration" 1 5000 ms;#PP text "Length of grain in milliseconds";#P hidden newobj 387 248 155 196617 pp 4 "Grain Duration" 1 5000 ms;#N pp 3 "Grain Period" 5 5000 ms;#PP text "Adjust the speed of grain triggers";#P hidden newobj 387 230 145 196617 pp 3 "Grain Period" 5 5000 ms;#N pp 2 fixed c4 "Dry Level" 0 120;#PP text "Dry Signal Level";#P hidden newobj 25 436 152 196617 pp 2 fixed c4 "Dry Level" 0 120;#N pp 1 fixed c4 "Wet Level" 0 111;#PP text "Wet Signal Level";#P hidden newobj 25 479 152 196617 pp 1 fixed c4 "Wet Level" 0 111;#P user gain~ 209 295 13 62 158 0 1.071519 7.94321 10.;#P user gain~ 196 295 13 62 158 0 1.071519 7.94321 10.;#P number 387 174 35 9 0 5000 3 3 0 0 0 221 221 221 222 222 222 0 0 0;#P hidden newex 405 196 79 196617 s ---gr_bufsize;#P hidden newex 196 406 52 196617 plugout~;#P hidden newex 14 167 40 196617 plugin~;#N plugconfig;#C useviews 1 0 0 1;#C numprograms 8;#C preempt 1;#C sigvschange 1;#C sigvsdefault 32;#C meter 3;#C autosize;#C defaultview jhno 0 0 0;#C dragscroll 1;#C noinfo;#C package ????;#C welcome Rye (by jhno);#C setprogram 1 "Low Reverse" 0 1. 0. 0.064865 0.080416 0.101 0.4525 0.363334 0.2548 0.;#C setprogram 2 "Crystal Clone" 0 0.576577 0.908333 0.041041 0.053211 0.042 0.3995 0.033333 0.1358 1.;#C setprogram 3 "Mangy Chorus" 0 0.846847 0.891667 0.085485 0.155831 0.239 0.5495 0.128333 0.0134 0.254;#C setprogram 4 "Slow Shifter" 0 0.891892 0. 0.299299 0.69994 0.2 0.541 0.22 1. 0.;#C setprogram 5 "High Slices" 0 0.828829 0. 0.008408 0.003801 0.02 0.734 0.22 1. 0.;#C setprogram 6 "Reverse Echos" 0 0.828829 0. 0.04004 0.030006 0.02 0.45 0.38 1. 0.98;#C setprogram 7 "We Love Glenda" 0 0.846847 0. 0.01001 0.010002 0.09 0.4 0.73 0.02 0.53;#C setprogram 8 Disoriented 0 1. 0. 0.61001 0.589918 0.101 0.551211 0.75 0.33 0.2;#C uniqueid 237 1 48;#C hintbg 10000 32000 64000;#C hintfg 10000 30000 40000;#C initialpgm 1;#C category 16;#P newobj 385 490 53 196617 plugconfig;#P comment 424 160 51 196617 stereo;#P comment 424 130 51 196617 duration;#P comment 424 115 51 196617 pitch;#P comment 424 145 51 196617 crossfade;#P flonum 387 159 35 9 0 0 0 3 0 0 0 221 221 221 222 222 222 0 0 0;#P user gain~ 238 295 13 62 158 0 1.071519 7.94321 10.;#P hidden newex 230 240 33 196617 *~ 0.;#P hidden newex 166 240 33 196617 *~ 0.;#P number 387 99 35 9 5 0 1 3 0 0 0 221 221 221 222 222 222 0 0 0;#P hidden newex 99 327 55 196617 s ---gr_go;#N counter 1 8;#X flags 0 0;#P hidden newobj 99 302 66 196617 counter 1 8;#P hidden newex 99 275 55 196617 metro 250;#P user gain~ 225 295 13 62 158 0 1.071519 7.94321 10.;#P hidden newex 331 191 27 196617 gr 8;#P hidden newex 298 191 27 196617 gr 7;#P hidden newex 192 191 27 196617 gr 4;#P hidden newex 228 191 27 196617 gr 5;#P hidden newex 263 191 27 196617 gr 6;#P hidden newex 161 191 27 196617 gr 3;#P hidden newex 126 191 27 196617 gr 2;#P hidden newex 93 191 27 196617 gr 1;#P flonum 387 129 35 9 0 0 0 3 0 0 0 221 221 221 222 222 222 0 0 0;#P flonum 387 144 35 9 0. 0 1 3 0 0 0 221 221 221 222 222 222 0 0 0;#P hidden newex 115 164 73 196617 s ---gr_curve;#P hidden newex 115 124 69 196617 s ---gr_pitch;#P hidden newex 115 145 62 196617 s ---gr_dur;#P hidden newex 206 146 63 196617 tapin~ 5000;#P comment 424 100 51 196617 speed;#P comment 424 175 35 196617 delay;#P comment 336 249 21 196617 fb;#P comment 52 50 73 196617 rye is by jhno;#P connect 66 0 64 0;#P connect 64 0 32 0;#P hidden connect 36 1 39 0;#P hidden connect 18 1 38 0;#P connect 64 1 32 1;#P connect 4 0 10 0;#P hidden connect 60 0 19 0;#P hidden connect 19 0 20 0;#P hidden connect 20 0 21 0;#P hidden connect 63 0 6 0;#P hidden connect 9 0 5 0;#P hidden connect 8 0 7 0;#P connect 4 0 11 0;#P hidden connect 22 0 19 1;#P connect 4 0 12 0;#P hidden connect 12 0 23 0;#P hidden connect 16 0 23 0;#P hidden connect 10 0 23 0;#P hidden connect 14 0 23 0;#P hidden connect 26 0 23 1;#P connect 4 0 15 0;#P hidden connect 32 0 36 0;#P hidden connect 39 0 36 0;#P hidden connect 18 0 33 0;#P hidden connect 36 0 33 0;#P connect 33 0 65 0;#P hidden connect 32 1 4 0;#P hidden connect 61 0 4 0;#P hidden connect 32 0 4 0;#P hidden connect 32 1 37 0;#P hidden connect 36 1 37 0;#P hidden connect 47 0 46 0;#P hidden connect 46 0 63 0;#P hidden connect 38 0 18 0;#P hidden connect 24 0 18 0;#P hidden connect 10 0 18 0;#P hidden connect 12 0 18 0;#P hidden connect 14 0 18 0;#P hidden connect 16 0 18 0;#P connect 4 0 14 0;#P hidden connect 13 0 24 0;#P hidden connect 17 0 24 0;#P hidden connect 11 0 24 0;#P hidden connect 15 0 24 0;#P hidden connect 23 0 25 0;#P hidden connect 11 0 25 0;#P hidden connect 13 0 25 0;#P hidden connect 15 0 25 0;#P hidden connect 17 0 25 0;#P hidden connect 18 1 25 0;#P hidden connect 25 0 33 1;#P hidden connect 37 0 33 1;#P connect 33 1 65 1;#P hidden connect 26 0 24 1;#P connect 4 0 13 0;#P connect 4 0 16 0;#P hidden connect 18 0 58 0;#P hidden connect 58 0 61 0;#P hidden connect 47 0 48 0;#P hidden connect 48 0 49 0;#P hidden connect 49 0 50 0;#P hidden connect 62 0 59 0;#P hidden connect 59 0 58 1;#P connect 4 0 17 0;#P hidden connect 50 0 46 1;#P hidden connect 49 1 46 1;#P connect 56 0 57 0;#P connect 57 0 31 0;#P connect 54 0 31 0;#P hidden connect 40 0 22 0;#P hidden connect 43 0 47 0;#P hidden connect 41 0 9 0;#P hidden connect 42 0 8 0;#P hidden connect 44 0 26 0;#P hidden connect 45 0 35 0;#P hidden connect 22 0 40 0;#P hidden connect 9 0 41 0;#P hidden connect 8 0 42 0;#P hidden connect 47 0 43 0;#P hidden connect 26 0 44 0;#P hidden connect 35 0 45 0;#P hidden connect 59 0 62 0;#P hidden connect 35 0 34 0;#P connect 52 0 51 0;#P connect 55 0 54 0;#P connect 51 0 54 0;#P connect 53 0 55 0;#P pop;