max v2;#N vpatcher 545 226 1120 899;#P window setfont "Sans Serif" 9.;#P window linecount 1;#P message 234 192 79 196617 NoiseGenerator;#P message 233 169 66 196617 DirtyShifter;#P message 234 147 67 196617 stageDriving;#P message 234 130 37 196617 sblMS;#P button 180 35 15 0;#P message 234 90 37 196617 shifty;#P message 234 69 64 196617 walkietalkie;#P message 295 437 52 196617 schnitzer;#P message 109 310 51 196617 sbllooper;#P message 107 289 25 196617 Rye;#P message 107 266 59 196617 retardando;#P message 107 242 56 196617 sblmunger;#P message 107 222 36 196617 island;#P message 107 201 59 196617 infragranti;#P message 107 182 30 196617 ezeq;#P message 234 111 60 196617 dehnuebung;#P message 107 147 54 196617 crumbling;#P message 107 127 65 196617 channelstrip;#P message 107 91 97 196617 multibanddistortion;#P button 64 471 15 0;#P message 107 73 81 196617 uebersaettigung;#P newex 51 390 77 196617 prepend build;#P newex 51 366 47 196617 tosymbol;#P window setfont Verdana 12.;#P newex 51 423 110 -1006632948 js plugbuilder.js;#P window setfont "Sans Serif" 18.;#P comment 60 28 100 196626 my plugs:;#P window setfont "Sans Serif" 9.;#P comment 300 417 100 196617 to do;#P user panel 288 414 128 128;#X brgb 174 255 75;#X frgb 0 0 0;#X border 1;#X rounded 0;#X shadow 0;#X done;#P comment 198 36 45 196617 build all;#P connect 27 0 5 0;#P connect 24 0 5 0;#P connect 7 0 5 0;#P connect 9 0 5 0;#P connect 10 0 5 0;#P fasten 11 0 5 0 65 299;#P connect 12 0 5 0;#P connect 13 0 5 0;#P connect 14 0 5 0;#P connect 15 0 5 0;#P connect 16 0 5 0;#P connect 17 0 5 0;#P connect 18 0 5 0;#P connect 19 0 5 0;#P connect 20 0 5 0;#P connect 21 0 5 0;#P connect 22 0 5 0;#P connect 25 0 5 0;#P connect 26 0 5 0;#P connect 5 0 6 0;#P connect 6 0 4 0;#P connect 4 0 8 0;#P connect 23 0 7 0;#P connect 23 0 9 0;#P connect 23 0 10 0;#P fasten 23 0 11 0 118 146;#P connect 23 0 13 0;#P connect 23 0 14 0;#P connect 23 0 15 0;#P connect 23 0 16 0;#P connect 23 0 17 0;#P connect 23 0 18 0;#P connect 23 0 19 0;#P connect 23 0 26 0;#P connect 23 0 21 0;#P connect 23 0 22 0;#P connect 23 0 12 0;#P connect 23 0 24 0;#P connect 23 0 25 0;#P connect 23 0 27 0;#P pop;