max v2;#N vpatcher 604 314 822 632;#P origin -1336 -199;#P window setfont "Sans Serif" 9.;#P window linecount 1;#P hidden newex -608 370 48 196617 plugout~;#P hidden message -67 400 62 196617 windowsize;#P user hint 127 46 158 61 release 1000 100 0 65535 65535 52428 9 3 0 1 0 0 0;#P hidden message -88 384 14 196617 4;#P hidden message -103 384 14 196617 3;#P hidden message -118 384 14 196617 2;#P hidden message -133 384 14 196617 1;#P hidden message -133 406 51 196617 recall \$1;#P hidden message -152 384 14 196617 4;#P hidden message -167 384 14 196617 3;#P hidden message -182 384 14 196617 2;#P hidden message -197 384 14 196617 1;#P hidden message -197 406 59 196617 capture \$1;#N plugconfig;#C useviews 0 1 0 0;#C numprograms 4;#C preempt 1;#C sigvschange 1;#C sigvsdefault 32;#C windowsize;#C defaultview Crumbling 0 0 0;#C dragscroll 1;#C noinfo;#C package ????;#C welcome Crumbling by sbl 2005;#C setprogram 1 "Basic crumb" 0 0.12 0.0703 0.05;#C setprogram 2 "Mean crumb" 0 0.19 0.09 0.04;#C setprogram 3 "This ain't no bitcrusher" 0 0.03 0.01 0.01;#C setprogram 4 "and definitely no grain-man" 0 0.26 0.03 0.15;#C uniqueid 128 44 69;#C initialpgm 1;#C category 162;#P hidden newobj 82 239 55 196617 plugconfig;#N pp 3 release 0. 100. ms;#P hidden newobj -131 -101 117 196617 pp 3 release 0. 100. ms;#N pp 2 attack 0. 100. ms;#P hidden newobj -131 -121 112 196617 pp 2 attack 0. 100. ms;#N pp 1 crumb 0. 100.;#P hidden newobj -131 -140 96 196617 pp 1 crumb 0. 100.;#P comment 50 33 38 196617 crumb;#P comment 135 33 13 196617 >;#P flonum 51 47 35 9 0. 100. 3 3 0 0 0 221 221 221 222 222 222 0 0 0;#P hidden newex -252 76 107 196617 average~ 10 absolute;#P hidden newex -623 338 35 196617 *~ 1.;#P hidden newex -443 14 31 196617 +~;#P hidden newex -252 126 35 196617 *~ 1.;#P hidden newex -567 339 35 196617 *~ 1.;#P hidden comment -95 237 21 196617 ms;#P hidden comment -278 237 21 196617 ms;#P hidden comment -128 221 39 196617 Release;#P flonum 125 47 35 9 0. 100. 3 3 0 0 0 221 221 221 222 222 222 0 0 0;#P hidden newex -131 255 65 196617 mstosamps~;#P flonum 88 47 35 9 0. 100. 3 3 0 0 0 221 221 221 222 222 222 0 0 0;#P hidden newex -314 255 65 196617 mstosamps~;#P hidden newex -443 279 378 196617 slide~ 441. 441.;#P hidden newex -443 156 201 196617 >=~ 0.;#P hidden newex -443 71 119 196617 average~ 2000 absolute;#P hidden newex -443 -92 42 196617 plugin~;#P hidden comment -316 223 39 196617 Attack;#P hidden comment -315 15 120 196617 2005 Stephen Lumenta;#P window setfont "Sans Serif" 18.;#P hidden comment -315 -13 95 196626 Crumbling;#P window setfont "Sans Serif" 9.;#P comment 99 33 13 196617 <;#P user panel 49 28 113 38;#X brgb 2 189 246;#X frgb 0 0 0;#X border 1;#X rounded 0;#X shadow 0;#X done;#P comment 167 305 50 196617 sbl 2005;#P user fpic -3 25 223 295 crumb.jpg 0 0 0 0. 0 0 0;#P user hint 89 47 120 62 attack 1000 100 0 65535 65535 52428 9 3 0 1 0 0 0;#P hidden fasten 8 0 22 0 -438 -25 -618 -25;#P hidden connect 22 0 43 0;#P hidden fasten 11 0 22 1 -438 317 -593 317;#P hidden connect 19 0 43 1;#P hidden fasten 8 1 19 0 -417 -25 -562 -25;#P hidden fasten 11 0 19 1 -438 317 -537 317;#P hidden fasten 8 0 21 0 -438 -31 -438 -31;#P hidden connect 21 0 9 0;#P hidden connect 9 0 10 0;#P hidden connect 10 0 11 0;#P hidden connect 8 1 21 1;#P hidden connect 13 0 12 0;#P hidden connect 12 1 11 1;#P hidden fasten 21 0 23 0 -438 54 -247 54;#P hidden connect 23 0 20 0;#P hidden connect 20 0 10 1;#P hidden connect 24 0 20 1;#P hidden connect 35 0 31 0;#P hidden connect 34 0 31 0;#P hidden connect 33 0 31 0;#P hidden connect 32 0 31 0;#P hidden connect 37 0 36 0;#P hidden connect 38 0 36 0;#P hidden connect 39 0 36 0;#P hidden connect 40 0 36 0;#P hidden connect 24 0 27 0;#P hidden connect 13 0 28 0;#P hidden connect 15 0 29 0;#P hidden connect 15 0 14 0;#P hidden connect 14 1 11 2;#P hidden connect 27 0 24 0;#P hidden connect 42 0 30 0;#P hidden connect 36 0 30 0;#P hidden connect 31 0 30 0;#P hidden connect 28 0 13 0;#P hidden connect 29 0 15 0;#P pop;