max v2;#N vpatcher 563 151 876 422;#P origin -1160 -35;#P window setfont "Sans Serif" 9.;#P hidden newex 46 14 225 196617 buildassist @path munger~ @extension external;#P hidden message 373 315 45 196617 recall 1;#P comment 17 254 113 196617 ¥ mungerplug sbl 2006;#P comment 17 239 283 196617 ¥ munger~ by dan trueman \, music dept. princeton university;#P hidden message 359 384 62 196617 windowsize;#P hidden message 337 362 53 196617 capture 1;#N plugconfig;#C useviews 0 1 0 0;#C numprograms 1;#C preempt 1;#C sigvschange 1;#C sigvsdefault 32;#C windowsize;#C defaultview Interface 0 0 0;#C dragscroll 1;#C infotext;#C package sbl;#C setprogram 1 default 0 0.88189 0.771654 1. 0.037 1. 0.5 0. 0.014005 0.036345 0.057019 0.034678 0.5 0. 1.;#C uniqueid 128 25 247;#C initialpgm 1;#C category 16;#P hidden newobj 248 182 55 196617 plugconfig;#P newex 44 496 106 196617 bgcolor 122 122 122;#N pp 14 delaylength 0 3000;#P hidden newobj -296 192 125 196617 pp 14 delaylength 0 3000;#N pp 13 gpitchvar 0. 1.;#P hidden newobj -193 141 105 196617 pp 13 gpitchvar 0. 1.;#N pp 12 gpitch -24. 24.;#P hidden newobj -303 143 106 196617 pp 12 gpitch -24. 24.;#P comment 212 36 39 196617 delay;#P number 212 62 35 9 0 0 0 3 0 0 0 221 221 221 222 222 222 0 0 0;#P hidden message 195 488 95 196617 delaylength_ms \$1;#N pp 11 gsizevar 1 3000;#P hidden newobj -211 54 113 196617 pp 11 gsizevar 1 3000;#N pp 10 gsize 1 3000;#P hidden newobj -316 55 97 196617 pp 10 gsize 1 3000;#N pp 9 gseperationvar 1 3000;#P hidden newobj -127 -56 136 196617 pp 9 gseperationvar 1 3000;#N pp 8 gseperation 1 3000;#P hidden newobj -288 -30 120 196617 pp 8 gseperation 1 3000;#N pp 7 position 0 127;#P hidden newobj 416 164 97 196617 pp 7 position 0 127;#N pp 6 direction 0 2 choices back bi forward;#P newobj 266 -52 200 196617 pp 6 direction 0 2 choices back bi forward;#N pp 5 panning 0. 1.;#P newobj 266 -83 92 196617 pp 5 panning 0. 1.;#N pp 4 ramp 0 1000;#P newobj 162 -84 91 196617 pp 4 ramp 0 1000;#P comment 160 83 50 196617 direction;#P hidden newex 108 299 104 196617 zmap 0 127 -0.01 1.;#P user hslider 159 160 18 128 128 1 0 0;#P user umenu 159 110 100 196647 1 64 126 1;#X add rev;#X add bi;#X add forward;#P comment 162 35 39 196617 ramp;#N pp 3 record choices 0 1 off on;#P newobj 127 -122 145 196617 pp 3 record choices 0 1 off on;#P user meter~ 160 200 304 213 50 0 168 0 103 103 103 255 153 0 255 0 0 217 217 0 153 186 0 12 3 3 3 3;#P user meter~ 9 201 153 214 50 0 168 0 103 103 103 255 153 0 255 0 0 217 217 0 153 186 0 12 3 3 3 3;#N pp 2 wet 0 127;#P hidden newobj 8 -100 79 196617 pp 2 wet 0 127;#N pp 1 dry 0 127;#P hidden newobj 9 -126 78 196617 pp 1 dry 0 127;#P comment 218 184 25 196617 wet;#P user hslider 159 216 18 128 128 1 0 0;#P user hslider 9 217 18 128 128 1 0 0;#P newex -276 301 27 196617 - 1;#P flonum 12 160 35 9 0 0 0 3 0 0 0 221 221 221 222 222 222 0 0 0;#P newex -222 465 56 196617 transratio;#P number 166 376 35 9 -24 24 3 3 0 0 0 221 221 221 222 222 222 0 0 0;#P number 129 376 35 9 -24 24 3 3 0 0 0 221 221 221 222 222 222 0 0 0;#P number 92 376 35 9 -24 24 3 3 0 0 0 221 221 221 222 222 222 0 0 0;#P number 55 376 35 9 -24 24 3 3 0 0 0 221 221 221 222 222 222 0 0 0;#P number 18 376 35 9 -24 24 3 3 0 0 0 221 221 221 222 222 222 0 0 0;#P number -19 376 35 9 -24 24 3 3 0 0 0 221 221 221 222 222 222 0 0 0;#P number -56 376 35 9 -24 24 3 3 0 0 0 221 221 221 222 222 222 0 0 0;#P number -93 376 35 9 -24 24 3 3 0 0 0 221 221 221 222 222 222 0 0 0;#P newex -93 427 105 196617 pak 0 0 0 0 0 0 0 0;#P message -580 305 123 196617 maxvoices 50 \, minsize 3;#P newex -436 389 65 196617 r ---tomung;#P newex -182 398 65 196617 s ---tomung;#P newex -93 456 71 196617 prepend scale;#P newex -605 238 51 196617 loadmess;#P user ezdac~ -246 665 -202 698 0;#P user gain~ -567 494 23 36 158 0 1.071519 7.94321 10.;#P user gain~ -590 494 23 36 158 0 1.071519 7.94321 10.;#P newex -396 705 31 196617 dac~;#P newex -382 67 42 196617 +~;#P newex -382 35 42 196617 plugin~;#P message -531 492 31 196617 clear;#P toggle 262 110 15 0;#P hidden flonum 108 324 35 9 -1. 1. 3 3 0 0 0 221 221 221 222 222 222 0 0 0;#P message -240 400 58 196617 position \$1;#P message -142 299 53 196617 record \$1;#P number -276 329 35 9 -1 1 3 3 0 0 0 221 221 221 222 222 222 0 0 0;#P message -276 348 92 196617 ambidirectional \$1;#P message -139 318 40 196617 smooth;#P message -140 337 50 196617 tempered;#P number 162 62 35 9 0 0 0 3 0 0 0 221 221 221 222 222 222 0 0 0;#P newex -382 -32 42 196617 adc~;#P window linecount 2;#P comment 98 134 53 196617 grain pitch variation;#P window linecount 1;#P comment 12 134 53 196617 grain pitch;#P window linecount 2;#P comment 98 84 53 196617 grain size variation;#P comment 98 35 53 196617 grain rate variation;#P user gain~ -362 533 23 36 158 0 1.071519 7.94321 10.;#P user gain~ -385 533 23 36 158 0 1.071519 7.94321 10.;#P window linecount 1;#P newex -400 630 48 196617 plugout~;#P message -182 369 65 196617 ramptime \$1;#P flonum 98 161 35 9 0. 1. 3 3 0 0 0 221 221 221 222 222 222 0 0 0;#P flonum 98 111 35 9 3. 3000. 3 3 0 0 0 221 221 221 222 222 222 0 0 0;#P flonum 98 62 35 9 0. 0 1 3 0 0 0 221 221 221 222 222 222 0 0 0;#P flonum 261 62 35 9 0 0 0 3 0 0 0 221 221 221 222 222 222 0 0 0;#P flonum 12 111 40 9 3. 3000. 3 3 0 0 0 221 221 221 222 222 222 0 0 0;#P flonum 12 62 35 9 0. 0 1 3 0 0 0 221 221 221 222 222 222 0 0 0;#P newex -490 499 105 196617 munger~ 3000;#B color 2;#P window linecount 2;#P comment 12 35 53 196617 grain separation;#P window linecount 1;#P comment 12 84 52 196617 grain size;#P comment 261 35 39 196617 stereo;#P comment 68 187 24 196617 dry;#P user panel 7 31 148 152;#X brgb 223 223 223;#X frgb 0 0 0;#X border 0;#X rounded 0;#X shadow 0;#X done;#P comment 159 134 45 196617 position;#P comment 261 84 23 196617 rec;#P user panel 157 31 148 152;#X brgb 223 223 223;#X frgb 0 0 0;#X border 0;#X rounded 0;#X shadow 0;#X done;#P hidden connect 57 0 37 0;#P connect 34 0 37 0;#P connect 40 0 44 0;#P connect 34 1 38 0;#P connect 37 1 38 0;#P connect 44 0 8 0;#P connect 43 0 8 0;#P connect 33 0 8 0;#P connect 35 0 8 0;#P hidden connect 9 0 8 1;#P hidden connect 12 0 8 2;#P hidden connect 10 0 8 3;#P hidden connect 13 0 8 4;#P connect 54 0 8 5;#P hidden connect 14 0 8 6;#P connect 17 0 16 0;#P connect 37 0 16 0;#P hidden connect 11 0 8 7;#P connect 16 0 36 0;#P hidden connect 58 0 17 0;#P connect 8 0 17 0;#P connect 23 0 34 0;#P connect 34 0 35 0;#P connect 16 1 36 1;#P connect 8 1 18 0;#P connect 17 1 18 0;#P connect 38 0 16 1;#P connect 18 0 16 1;#P connect 23 1 34 1;#P connect 34 1 35 1;#P hidden connect 10 0 76 0;#P hidden connect 55 0 81 0;#P hidden connect 79 0 83 0;#P hidden connect 9 0 74 0;#P hidden connect 66 0 56 0;#P connect 56 0 28 0;#P connect 28 0 27 0;#P hidden connect 31 0 30 0;#P hidden connect 55 0 54 0;#P hidden connect 13 0 77 0;#P hidden connect 14 0 82 0;#P hidden connect 24 0 15 0;#P hidden connect 78 0 42 0;#P connect 15 0 42 0;#P connect 27 0 42 0;#P connect 30 0 42 0;#P connect 29 0 42 0;#P connect 26 0 42 0;#P connect 25 0 42 0;#P connect 41 0 42 0;#P hidden connect 32 0 29 0;#P hidden connect 12 0 75 0;#P connect 46 0 45 0;#P connect 45 0 41 0;#P connect 47 0 45 1;#P connect 48 0 45 2;#P connect 49 0 45 3;#P connect 50 0 45 4;#P connect 51 0 45 5;#P connect 52 0 45 6;#P connect 53 0 45 7;#P hidden connect 58 0 61 0;#P hidden connect 57 0 60 0;#P hidden connect 37 0 62 0;#P hidden connect 60 0 57 0;#P hidden connect 74 0 9 0;#P hidden connect 76 0 10 0;#P hidden connect 81 0 55 0;#P hidden connect 75 0 12 0;#P hidden connect 77 0 13 0;#P hidden connect 82 0 14 0;#P hidden connect 67 0 68 0;#P hidden connect 68 0 31 0;#P hidden connect 32 0 64 0;#P hidden connect 72 0 66 0;#P hidden connect 73 0 67 0;#P hidden connect 61 0 58 0;#P hidden connect 17 0 63 0;#P hidden connect 24 0 70 0;#P hidden connect 70 0 24 0;#P hidden connect 79 0 78 0;#P hidden connect 83 0 79 0;#P hidden connect 87 0 85 0;#P hidden connect 86 0 85 0;#P hidden connect 90 0 85 0;#P hidden connect 71 0 11 0;#P hidden connect 64 0 32 0;#P hidden connect 11 0 71 0;#P hidden connect 66 0 72 0;#P hidden connect 67 0 73 0;#P pop;